<?xml version="1.0" encoding="utf-8"?>
<!-- Generator: Adobe Illustrator 20.0.0, SVG Export Plug-In . SVG Version: 6.00 Build 0)  -->
<svg version="1.2" baseProfile="tiny" id="Layer_2" xmlns="http://www.w3.org/2000/svg" xmlns:xlink="http://www.w3.org/1999/xlink"
	 x="0px" y="0px" viewBox="0 0 269 51" xml:space="preserve">
<path fill="#FFFFFF" d="M27.4,41.9c1.6,0,3-0.1,4.2-0.4c1.2-0.3,2.4-0.6,3.5-1.1v-7.5h-4.9c-0.7,0-1.3-0.2-1.7-0.6
	c-0.4-0.4-0.6-0.9-0.6-1.5v-6.3h17.7v21c-1.3,0.9-2.6,1.7-4,2.4s-2.8,1.2-4.4,1.7c-1.6,0.4-3.2,0.8-5,1s-3.7,0.3-5.7,0.3
	c-3.6,0-7-0.6-10.1-1.9c-3.1-1.3-5.8-3.1-8-5.3c-2.3-2.3-4-4.9-5.3-8.1c-1.4-3.2-2-6.6-2-10.2c0-3.7,0.6-7.1,1.8-10.2s3-5.8,5.3-8
	c2.3-2.3,5.1-4,8.3-5.3S23.3,0,27.4,0c2.1,0,4,0.2,5.8,0.5c1.8,0.3,3.5,0.8,5,1.4s2.9,1.3,4.2,2.1s2.4,1.7,3.4,2.7l-3.3,5.1
	c-0.3,0.5-0.7,0.9-1.1,1.1s-0.9,0.4-1.5,0.4c-0.7,0-1.4-0.2-2.1-0.7c-0.9-0.5-1.8-1-2.6-1.4s-1.6-0.7-2.5-1C31.9,10,31,9.8,30.1,9.7
	s-2-0.2-3.1-0.2c-2.2,0-4.1,0.4-5.8,1.1c-1.7,0.8-3.2,1.8-4.4,3.2s-2.2,3.1-2.8,5c-0.7,1.9-1,4.1-1,6.5c0,2.6,0.4,5,1.1,7
	c0.7,2,1.7,3.8,3,5.2c1.3,1.4,2.8,2.5,4.6,3.2C23.3,41.6,25.3,41.9,27.4,41.9z"/>
<path fill="#FFFFFF" d="M103.4,25.4c0,3.6-0.6,6.9-1.9,10c-1.2,3.1-3,5.8-5.2,8.1c-2.3,2.3-5,4.1-8.1,5.4c-3.2,1.3-6.7,1.9-10.6,1.9
	s-7.4-0.6-10.6-1.9c-3.2-1.3-5.9-3.1-8.2-5.4c-2.3-2.3-4-5-5.3-8.1c-1.2-3.1-1.9-6.4-1.9-10s0.6-6.9,1.9-10c1.2-3.1,3-5.8,5.3-8.1
	s5-4.1,8.2-5.4C70.2,0.6,73.7,0,77.5,0c3.9,0,7.4,0.7,10.6,2s5.9,3.1,8.1,5.4c2.3,2.3,4,5,5.2,8.1C102.7,18.5,103.4,21.8,103.4,25.4
	z M91.5,25.4c0-2.5-0.3-4.7-1-6.6c-0.6-2-1.6-3.6-2.7-5c-1.2-1.4-2.7-2.4-4.4-3.1c-1.7-0.7-3.7-1.1-5.9-1.1c-2.2,0-4.2,0.4-6,1.1
	c-1.7,0.7-3.2,1.8-4.4,3.1c-1.2,1.4-2.1,3-2.7,5s-1,4.2-1,6.6c0,2.5,0.3,4.7,1,6.7c0.6,2,1.6,3.6,2.7,5c1.2,1.4,2.7,2.4,4.4,3.1
	s3.7,1.1,6,1.1c2.2,0,4.2-0.4,5.9-1.1c1.7-0.7,3.2-1.8,4.4-3.1c1.2-1.4,2.1-3,2.7-5S91.5,27.9,91.5,25.4z"/>
<path fill="#FFFFFF" d="M106.1,0.5h9.3c1,0,1.8,0.2,2.5,0.7c0.6,0.5,1.1,1.1,1.4,1.8l9.6,26.6c0.4,1.2,0.9,2.4,1.3,3.8
	c0.4,1.4,0.9,2.8,1.2,4.3c0.3-1.5,0.7-2.9,1.1-4.3c0.4-1.4,0.8-2.6,1.2-3.8L143.3,3c0.2-0.6,0.7-1.2,1.3-1.7
	c0.7-0.5,1.5-0.8,2.4-0.8h9.4l-19.9,49.7H126L106.1,0.5z"/>
<path fill="#FFFFFF" d="M150.4,44.9c0-0.8,0.2-1.6,0.5-2.3s0.7-1.3,1.3-1.8c0.5-0.5,1.2-0.9,1.9-1.2s1.5-0.5,2.4-0.5
	c0.8,0,1.6,0.2,2.4,0.5c0.7,0.3,1.4,0.7,1.9,1.2s1,1.1,1.3,1.8s0.5,1.5,0.5,2.3s-0.2,1.6-0.5,2.3s-0.7,1.3-1.3,1.9s-1.2,0.9-1.9,1.2
	s-1.5,0.4-2.4,0.4s-1.7-0.1-2.4-0.4c-0.7-0.3-1.4-0.7-1.9-1.2s-1-1.1-1.3-1.9C150.5,46.5,150.4,45.7,150.4,44.9z"/>
<path fill="#FFFFFF" d="M219.8,49.9h-8.9c-1,0-1.8-0.2-2.5-0.7c-0.6-0.5-1.1-1.1-1.3-1.8l-2.9-8.7h-18.9l-2.9,8.7
	c-0.2,0.6-0.7,1.2-1.3,1.7c-0.7,0.5-1.5,0.8-2.4,0.8h-9l19.2-49.7h11.8L219.8,49.9z M187.9,30.9h13.6l-4.6-13.6
	c-0.3-0.9-0.6-1.9-1-3.1s-0.8-2.4-1.2-3.8c-0.4,1.4-0.7,2.7-1.1,3.9s-0.8,2.2-1.1,3.1L187.9,30.9z"/>
<path fill="#FFFFFF" d="M247.6,41.2c1.5,0,2.9-0.3,4.1-0.8c1.2-0.5,2.2-1.2,3.1-2.2c0.8-1,1.5-2.1,1.9-3.5s0.7-2.9,0.7-4.7V0.5H269
	V30c0,3-0.5,5.8-1.5,8.4c-1,2.5-2.4,4.7-4.2,6.6c-1.8,1.8-4.1,3.3-6.7,4.3s-5.6,1.5-8.9,1.5c-3.3,0-6.3-0.5-8.9-1.5
	c-2.6-1-4.9-2.5-6.7-4.3s-3.3-4-4.2-6.6c-1-2.5-1.5-5.3-1.5-8.4V0.5h11.5V30c0,1.8,0.2,3.3,0.7,4.7c0.4,1.4,1.1,2.5,1.9,3.5
	c0.8,1,1.9,1.7,3.1,2.2C244.7,40.9,246.1,41.2,247.6,41.2z"/>
</svg>
