<?xml version="1.0" encoding="utf-8"?>
<svg version="1.1" id="Layer_1" xmlns="http://www.w3.org/2000/svg" xmlns:xlink="http://www.w3.org/1999/xlink" x="0px" y="0px"
	 viewBox="0 0 270 54" style="enable-background:new 0 0 270 54;" xml:space="preserve">
<style type="text/css">
	.st0{fill:#fff;}
	.st1{fill:#44c2ef;}
	.st2{fill:#104059;}
</style>
<path class="st0" d="M75.1,15.8c0.6-0.7,1.4-1.3,2.3-1.7s1.9-0.6,3-0.6c0.6,0,1.1,0,1.6,0.1s0.9,0.2,1.4,0.3
	c0.4,0.1,0.9,0.3,1.3,0.5s0.9,0.5,1.3,0.7s0.7,0.4,1.1,0.4c0.3,0,0.5-0.1,0.8-0.2c0.2-0.1,0.4-0.3,0.6-0.6l1.7-2.6
	c-0.5-0.5-1.1-1-1.8-1.4S87,9.9,86.2,9.6c-0.8-0.3-1.7-0.6-2.6-0.7c-0.9-0.2-2-0.3-3-0.3c-2.1,0-4,0.3-5.7,1s-3.1,1.6-4.3,2.7
	c-1.2,1.2-2.1,2.6-2.7,4.2s-1,3.4-1,5.3s0.3,3.6,1,5.3c0.7,1.6,1.6,3,2.8,4.2c1.2,1.2,2.6,2.1,4.2,2.8c1.6,0.7,3.4,1,5.3,1
	c1.1,0,2-0.1,3-0.2c0.9-0.1,1.8-0.3,2.6-0.5c0.8-0.2,1.6-0.5,2.3-0.9c0.7-0.3,1.4-0.8,2.1-1.3V21.3h-9.3v3.3c0,0.3,0.1,0.6,0.3,0.8
	c0.2,0.2,0.5,0.3,0.9,0.3h2.6v3.9c-0.6,0.2-1.2,0.4-1.8,0.6c-0.6,0.1-1.4,0.2-2.2,0.2c-1.1,0-2.1-0.2-3-0.6s-1.7-0.9-2.4-1.7
	c-0.7-0.7-1.2-1.6-1.6-2.7s-0.6-2.3-0.6-3.7c0-1.2,0.2-2.4,0.5-3.4C74,17.4,74.5,16.5,75.1,15.8z M-0.1,35.5c0,2.7,1.4,5.2,3.6,6.7
	L22.6,54l19.3-11.8c2.3-1.5,3.7-4,3.7-6.7V-0.1H-0.1V35.5z M14.6,12.8l5.9,1.8l2.3-5.7l2.3,5.7l5.9-1.8l-3.1,5.3l5.1,3.5l-6.1,0.9
	l0.4,6.1l-4.5-4.2l-4.5,4.2l0.4-6.1l-6.1-0.9l5.1-3.5L14.6,12.8z M13.1,31.5h19.4c0.9,0,1.7,0.7,1.7,1.7c0,0.9-0.7,1.7-1.7,1.7H13.1
	c-0.9,0-1.7-0.7-1.7-1.7S12.2,31.5,13.1,31.5z M198.9,8.9v15.3c0,0.9-0.1,1.7-0.3,2.4c-0.2,0.7-0.6,1.3-1,1.8s-1,0.9-1.6,1.1
	c-0.6,0.3-1.4,0.4-2.2,0.4s-1.5-0.1-2.2-0.4c-0.6-0.3-1.2-0.7-1.6-1.2c-0.4-0.5-0.8-1.1-1-1.8c-0.2-0.7-0.3-1.5-0.3-2.4V8.9h-6v15.3
	c0,1.6,0.3,3,0.8,4.4c0.5,1.3,1.2,2.5,2.2,3.4c1,1,2.1,1.7,3.5,2.2s2.9,0.8,4.7,0.8c1.7,0,3.3-0.3,4.6-0.8c1.4-0.5,2.5-1.3,3.5-2.2
	c1-0.9,1.7-2.1,2.2-3.4s0.8-2.8,0.8-4.4V8.9H198.9z M117,12.4c-1.2-1.2-2.6-2.1-4.2-2.8s-3.5-1-5.5-1s-3.8,0.3-5.5,1
	s-3.1,1.6-4.3,2.8c-1.2,1.2-2.1,2.6-2.7,4.2s-1,3.4-1,5.2s0.3,3.6,1,5.2s1.6,3,2.7,4.2c1.1,1.2,2.6,2.1,4.3,2.8c1.7,0.7,3.5,1,5.5,1
	s3.8-0.3,5.5-1c1.7-0.7,3.1-1.6,4.2-2.8c1.2-1.2,2.1-2.6,2.7-4.2s1-3.3,1-5.2c0-1.9-0.3-3.6-1-5.2C119.1,15,118.2,13.6,117,12.4z
	 M114.1,25.3c-0.3,1-0.8,1.9-1.4,2.6s-1.4,1.3-2.3,1.6c-0.9,0.4-1.9,0.6-3.1,0.6s-2.2-0.2-3.1-0.6s-1.7-0.9-2.3-1.6
	c-0.6-0.7-1.1-1.6-1.4-2.6s-0.5-2.2-0.5-3.5s0.2-2.4,0.5-3.5c0.3-1,0.8-1.9,1.4-2.6c0.6-0.7,1.4-1.3,2.3-1.6
	c0.9-0.4,1.9-0.6,3.1-0.6c1.1,0,2.2,0.2,3.1,0.6c0.9,0.4,1.7,0.9,2.3,1.6c0.6,0.7,1.1,1.6,1.4,2.6s0.5,2.2,0.5,3.5
	C114.6,23.1,114.4,24.2,114.1,25.3z M164.2,8.9l-10,25.9h4.7c0.5,0,0.9-0.1,1.3-0.4c0.3-0.3,0.6-0.6,0.7-0.9l1.5-4.5h9.8l1.5,4.5
	c0.1,0.4,0.4,0.7,0.7,0.9c0.3,0.2,0.8,0.4,1.3,0.4h4.7l-10-25.9H164.2z M163.8,24.8l2.4-7c0.2-0.4,0.4-1,0.6-1.6
	c0.2-0.6,0.4-1.3,0.6-2c0.2,0.7,0.4,1.4,0.6,2c0.2,0.6,0.4,1.1,0.5,1.6l2.4,7.1h-7.1V24.8z M149.4,29.8c-0.3-0.3-0.6-0.5-1-0.6
	s-0.8-0.2-1.2-0.2s-0.9,0.1-1.2,0.2s-0.7,0.4-1,0.6c-0.3,0.3-0.5,0.6-0.7,1s-0.2,0.8-0.2,1.2c0,0.4,0.1,0.8,0.2,1.2
	c0.2,0.4,0.4,0.7,0.7,1c0.3,0.3,0.6,0.5,1,0.6c0.4,0.2,0.8,0.2,1.2,0.2s0.8-0.1,1.2-0.2c0.4-0.2,0.7-0.4,1-0.6
	c0.3-0.3,0.5-0.6,0.7-1s0.2-0.8,0.2-1.2c0-0.4-0.1-0.8-0.2-1.2S149.7,30.1,149.4,29.8z M142.2,8.9c-0.5,0-0.9,0.1-1.3,0.4
	s-0.6,0.6-0.7,0.9l-5,13.8c-0.2,0.6-0.4,1.3-0.6,2c-0.2,0.7-0.4,1.5-0.6,2.2c-0.2-0.8-0.4-1.5-0.6-2.2c-0.2-0.7-0.5-1.4-0.7-2
	l-5-13.8c-0.1-0.4-0.4-0.7-0.7-0.9c-0.3-0.2-0.8-0.4-1.3-0.4h-4.8l10.4,25.9h5.4l10.4-25.9H142.2z"/>
<g>
	<path class="st1" d="M259,28.7h-34c-5.5,0-9.9-4.4-9.9-9.9v0c0-5.5,4.4-9.9,9.9-9.9h34c5.5,0,9.9,4.4,9.9,9.9v0
		C268.9,24.2,264.5,28.7,259,28.7z"/>
	<g>
		<path class="st2" d="M225.3,13.9h3c1.4,0,2.4,0.2,3,0.6c0.6,0.4,0.9,1,0.9,1.9c0,0.6-0.1,1.1-0.4,1.4c-0.3,0.4-0.6,0.6-1.1,0.7
			v0.1c0.6,0.1,1.1,0.4,1.3,0.8s0.4,0.9,0.4,1.5c0,0.9-0.3,1.6-1,2.1c-0.6,0.5-1.5,0.7-2.6,0.7h-3.6V13.9z M227.3,17.8h1.2
			c0.6,0,1-0.1,1.2-0.3c0.2-0.2,0.4-0.5,0.4-0.9c0-0.4-0.1-0.6-0.4-0.8c-0.3-0.2-0.7-0.2-1.3-0.2h-1.1V17.8z M227.3,19.4v2.5h1.3
			c0.6,0,1-0.1,1.2-0.3c0.3-0.2,0.4-0.5,0.4-1c0-0.8-0.6-1.2-1.7-1.2H227.3z"/>
		<path class="st2" d="M240.9,23.6h-5.6v-9.7h5.6v1.7h-3.5v2.1h3.3v1.7h-3.3v2.5h3.5V23.6z"/>
		<path class="st2" d="M247.6,23.6h-2v-8h-2.6v-1.7h7.3v1.7h-2.6V23.6z"/>
		<path class="st2" d="M258.6,23.6l-0.7-2.3h-3.5l-0.7,2.3h-2.2l3.4-9.7h2.5l3.4,9.7H258.6z M257.4,19.6c-0.6-2.1-1-3.3-1.1-3.5
			c-0.1-0.3-0.1-0.5-0.2-0.6c-0.1,0.6-0.6,2-1.2,4.2H257.4z"/>
	</g>
</g>
</svg>
