<?xml version="1.0" encoding="utf-8"?>
<!-- Generator: Adobe Illustrator 20.0.0, SVG Export Plug-In . SVG Version: 6.00 Build 0)  -->
<svg version="1.2" baseProfile="tiny" id="Layer_1" xmlns="http://www.w3.org/2000/svg" xmlns:xlink="http://www.w3.org/1999/xlink"
	 x="0px" y="0px" viewBox="0 0 205 54.2" xml:space="preserve">
<path fill="#FFFFFF" d="M75.2,15.9c0.6-0.7,1.4-1.3,2.3-1.7c0.9-0.4,1.9-0.6,3-0.6c0.6,0,1.1,0,1.6,0.1c0.5,0.1,0.9,0.2,1.4,0.3
	c0.4,0.1,0.9,0.3,1.3,0.5c0.4,0.2,0.9,0.5,1.3,0.7c0.4,0.2,0.7,0.4,1.1,0.4c0.3,0,0.5-0.1,0.8-0.2c0.2-0.1,0.4-0.3,0.6-0.6l1.7-2.6
	c-0.5-0.5-1.1-1-1.8-1.4s-1.4-0.8-2.2-1.1c-0.8-0.3-1.7-0.6-2.6-0.7c-0.9-0.2-2-0.3-3-0.3c-2.1,0-4,0.3-5.7,1
	c-1.7,0.7-3.1,1.6-4.3,2.7c-1.2,1.2-2.1,2.6-2.7,4.2c-0.6,1.6-1,3.4-1,5.3c0,1.9,0.3,3.6,1,5.3c0.7,1.6,1.6,3,2.8,4.2
	c1.2,1.2,2.6,2.1,4.2,2.8c1.6,0.7,3.4,1,5.3,1c1.1,0,2-0.1,3-0.2c0.9-0.1,1.8-0.3,2.6-0.5c0.8-0.2,1.6-0.5,2.3-0.9
	c0.7-0.3,1.4-0.8,2.1-1.3V21.4H81v3.3c0,0.3,0.1,0.6,0.3,0.8c0.2,0.2,0.5,0.3,0.9,0.3h2.6v3.9c-0.6,0.2-1.2,0.4-1.8,0.6
	c-0.6,0.1-1.4,0.2-2.2,0.2c-1.1,0-2.1-0.2-3-0.6c-0.9-0.4-1.7-0.9-2.4-1.7c-0.7-0.7-1.2-1.6-1.6-2.7c-0.4-1.1-0.6-2.3-0.6-3.7
	c0-1.2,0.2-2.4,0.5-3.4C74.1,17.5,74.6,16.6,75.2,15.9z M0,35.6c0,2.7,1.4,5.2,3.6,6.7l19.1,11.8l19.3-11.8c2.3-1.5,3.7-4,3.7-6.7V0
	H0V35.6z M14.7,12.9l5.9,1.8l2.3-5.7l2.3,5.7l5.9-1.8L28,18.2l5.1,3.5l-6.1,0.9l0.4,6.1l-4.5-4.2l-4.5,4.2l0.4-6.1l-6.1-0.9l5.1-3.5
	L14.7,12.9z M13.2,31.6h19.4c0.9,0,1.7,0.7,1.7,1.7c0,0.9-0.7,1.7-1.7,1.7H13.2c-0.9,0-1.7-0.7-1.7-1.7
	C11.5,32.3,12.3,31.6,13.2,31.6z M199,9v15.3c0,0.9-0.1,1.7-0.3,2.4c-0.2,0.7-0.6,1.3-1,1.8c-0.4,0.5-1,0.9-1.6,1.1
	c-0.6,0.3-1.4,0.4-2.2,0.4c-0.8,0-1.5-0.1-2.2-0.4c-0.6-0.3-1.2-0.7-1.6-1.2c-0.4-0.5-0.8-1.1-1-1.8c-0.2-0.7-0.3-1.5-0.3-2.4V9h-6
	v15.3c0,1.6,0.3,3,0.8,4.4c0.5,1.3,1.2,2.5,2.2,3.4c1,1,2.1,1.7,3.5,2.2c1.4,0.5,2.9,0.8,4.7,0.8c1.7,0,3.3-0.3,4.6-0.8
	c1.4-0.5,2.5-1.3,3.5-2.2s1.7-2.1,2.2-3.4c0.5-1.3,0.8-2.8,0.8-4.4V9H199z M117.1,12.5c-1.2-1.2-2.6-2.1-4.2-2.8s-3.5-1-5.5-1
	c-2,0-3.8,0.3-5.5,1c-1.7,0.7-3.1,1.6-4.3,2.8c-1.2,1.2-2.1,2.6-2.7,4.2c-0.6,1.6-1,3.4-1,5.2s0.3,3.6,1,5.2s1.6,3,2.7,4.2
	s2.6,2.1,4.3,2.8c1.7,0.7,3.5,1,5.5,1c2,0,3.8-0.3,5.5-1c1.7-0.7,3.1-1.6,4.2-2.8c1.2-1.2,2.1-2.6,2.7-4.2c0.6-1.6,1-3.3,1-5.2
	c0-1.9-0.3-3.6-1-5.2C119.2,15.1,118.3,13.7,117.1,12.5z M114.2,25.4c-0.3,1-0.8,1.9-1.4,2.6c-0.6,0.7-1.4,1.3-2.3,1.6
	c-0.9,0.4-1.9,0.6-3.1,0.6c-1.2,0-2.2-0.2-3.1-0.6c-0.9-0.4-1.7-0.9-2.3-1.6c-0.6-0.7-1.1-1.6-1.4-2.6c-0.3-1-0.5-2.2-0.5-3.5
	c0-1.3,0.2-2.4,0.5-3.5c0.3-1,0.8-1.9,1.4-2.6c0.6-0.7,1.4-1.3,2.3-1.6c0.9-0.4,1.9-0.6,3.1-0.6c1.1,0,2.2,0.2,3.1,0.6
	c0.9,0.4,1.7,0.9,2.3,1.6c0.6,0.7,1.1,1.6,1.4,2.6c0.3,1,0.5,2.2,0.5,3.5C114.7,23.2,114.5,24.3,114.2,25.4z M164.3,9l-10,25.9h4.7
	c0.5,0,0.9-0.1,1.3-0.4c0.3-0.3,0.6-0.6,0.7-0.9l1.5-4.5h9.8l1.5,4.5c0.1,0.4,0.4,0.7,0.7,0.9c0.3,0.2,0.8,0.4,1.3,0.4h4.7L170.5,9
	H164.3z M163.9,24.9l2.4-7c0.2-0.4,0.4-1,0.6-1.6c0.2-0.6,0.4-1.3,0.6-2c0.2,0.7,0.4,1.4,0.6,2c0.2,0.6,0.4,1.1,0.5,1.6l2.4,7.1
	H163.9z M149.5,29.9c-0.3-0.3-0.6-0.5-1-0.6s-0.8-0.2-1.2-0.2c-0.4,0-0.9,0.1-1.2,0.2s-0.7,0.4-1,0.6c-0.3,0.3-0.5,0.6-0.7,1
	c-0.2,0.4-0.2,0.8-0.2,1.2s0.1,0.8,0.2,1.2c0.2,0.4,0.4,0.7,0.7,1c0.3,0.3,0.6,0.5,1,0.6c0.4,0.2,0.8,0.2,1.2,0.2
	c0.4,0,0.8-0.1,1.2-0.2c0.4-0.2,0.7-0.4,1-0.6c0.3-0.3,0.5-0.6,0.7-1c0.2-0.4,0.2-0.8,0.2-1.2s-0.1-0.8-0.2-1.2
	S149.8,30.2,149.5,29.9z M142.3,9c-0.5,0-0.9,0.1-1.3,0.4s-0.6,0.6-0.7,0.9l-5,13.8c-0.2,0.6-0.4,1.3-0.6,2
	c-0.2,0.7-0.4,1.5-0.6,2.2c-0.2-0.8-0.4-1.5-0.6-2.2c-0.2-0.7-0.5-1.4-0.7-2l-5-13.8c-0.1-0.4-0.4-0.7-0.7-0.9
	c-0.3-0.2-0.8-0.4-1.3-0.4H121l10.4,25.9h5.4L147.2,9H142.3z"/>
</svg>
