<?xml version="1.0" encoding="UTF-8"?>
<svg version="1.2" baseProfile="tiny" id="Layer_1" xmlns="http://www.w3.org/2000/svg" xmlns:xlink="http://www.w3.org/1999/xlink" x="0px" y="0px" viewBox="0 0 70 85" xml:space="preserve">
	<path fill="#fff" d="M0,0v54.5c0,4.2,2.1,8,5.6,10.3l29.3,18.1l29.5-18.1c3.5-2.3,5.6-6.1,5.6-10.3V0H0z M22.5,19.7l9,2.8
		l3.5-8.8l3.5,8.8l9-2.8l-4.7,8.2l7.8,5.3l-9.3,1.4l0.7,9.4L35,37.6L28.1,44l0.7-9.4l-9.3-1.4l7.8-5.3L22.5,19.7z M49.8,53.4H20.2
		c-1.4,0-2.5-1.1-2.5-2.5c0-1.4,1.1-2.5,2.5-2.5h29.6c1.4,0,2.5,1.1,2.5,2.5C52.4,52.3,51.2,53.4,49.8,53.4z"/>
</svg>
