<?xml version="1.0" encoding="utf-8"?>
<svg version="1.1" id="Layer_2" xmlns="http://www.w3.org/2000/svg" xmlns:xlink="http://www.w3.org/1999/xlink" x="0px" y="0px"
	 viewBox="0 0 337 51" style="enable-background:new 0 0 337 51;" xml:space="preserve">
<style type="text/css">
	.st0{fill:#fefefe;}
	.st1{fill:none;}
	.st2{fill:#44c2ef;}
	.st3{fill:#104059;}
</style>
<g>
	<path class="st0" d="M16.1,14.1c1.2-1.4,2.7-2.4,4.4-3.2c1.7-0.8,3.7-1.1,5.8-1.1c1.2,0,2.2,0.1,3.1,0.2c0.9,0.1,1.8,0.3,2.7,0.5
		c0.8,0.2,1.7,0.6,2.5,1s1.7,0.9,2.6,1.4c0.7,0.5,1.4,0.7,2.1,0.7c0.5,0,1-0.1,1.5-0.4c0.4-0.3,0.8-0.6,1.1-1.1l3.3-5
		c-1-0.9-2.1-1.8-3.4-2.6c-1.3-0.8-2.7-1.5-4.2-2.1s-3.2-1-5-1.4c-1.8-0.3-3.8-0.5-5.8-0.5c-4,0-7.6,0.6-10.9,1.9
		c-3.2,1.2-6,3-8.3,5.2s-4,4.9-5.3,7.9c-1.3,3-1.9,6.3-1.9,10c0,3.6,0.6,6.9,1.9,10s3.1,5.7,5.3,8c2.3,2.2,4.9,4,8,5.3
		s6.5,1.9,10.1,1.9c2,0,3.9-0.1,5.7-0.3c1.8-0.2,3.4-0.5,5-0.9s3-1,4.4-1.6c1.4-0.7,2.7-1.5,4-2.4V24.6H27.2v6.3
		c0,0.6,0.2,1.1,0.6,1.4c0.4,0.4,1,0.6,1.7,0.6h4.9v7.5c-1.1,0.5-2.3,0.8-3.5,1.1s-2.6,0.4-4.2,0.4c-2.1,0-4-0.4-5.8-1.1
		c-1.8-0.7-3.3-1.8-4.6-3.2s-2.3-3.1-3-5.1s-1.1-4.3-1.1-6.9c0-2.4,0.3-4.5,1-6.4C13.9,17.1,14.8,15.5,16.1,14.1z"/>
	<g>
		<path class="st1" d="M66.8,37c1.2,1.3,2.7,2.4,4.4,3.1c1.7,0.7,3.7,1.1,6,1.1c2.2,0,4.2-0.4,5.9-1.1c1.7-0.7,3.2-1.7,4.4-3.1
			c1.2-1.4,2.1-3,2.8-4.9c0.6-1.9,1-4.1,1-6.6c0-2.4-0.3-4.6-1-6.6c-0.6-1.9-1.6-3.6-2.8-4.9c-1.2-1.3-2.7-2.4-4.4-3.1
			c-1.7-0.7-3.7-1.1-5.9-1.1c-2.2,0-4.2,0.4-6,1.1c-1.7,0.7-3.2,1.8-4.4,3.1c-1.2,1.4-2.1,3-2.8,4.9c-0.6,1.9-1,4.1-1,6.6
			c0,2.4,0.3,4.6,1,6.6C64.7,34,65.6,35.7,66.8,37z"/>
		<path class="st0" d="M66.6,48.7c3.2,1.3,6.7,1.9,10.6,1.9s7.4-0.6,10.6-1.9c3.2-1.3,5.9-3.1,8.2-5.3c2.3-2.3,4-4.9,5.2-8
			s1.9-6.4,1.9-9.9s-0.6-6.8-1.9-9.9c-1.2-3.1-3-5.7-5.2-8c-2.3-2.2-5-4-8.2-5.3C84.6,1,81.1,0.4,77.2,0.4S69.8,1,66.6,2.3
			c-3.2,1.3-5.9,3-8.2,5.3c-2.3,2.2-4,4.9-5.3,8c-1.2,3.1-1.9,6.4-1.9,9.9s0.6,6.9,1.9,9.9c1.2,3.1,3,5.7,5.3,8
			C60.7,45.6,63.4,47.4,66.6,48.7z M64.1,18.9c0.6-1.9,1.6-3.6,2.8-4.9c1.2-1.3,2.7-2.4,4.4-3.1c1.7-0.7,3.7-1.1,6-1.1
			c2.2,0,4.2,0.4,5.9,1.1c1.7,0.7,3.2,1.8,4.4,3.1c1.2,1.4,2.1,3,2.8,4.9c0.6,1.9,1,4.1,1,6.6c0,2.4-0.3,4.6-1,6.6
			c-0.6,1.9-1.6,3.6-2.8,4.9c-1.2,1.3-2.7,2.4-4.4,3.1c-1.7,0.7-3.7,1.1-5.9,1.1c-2.2,0-4.2-0.4-6-1.1c-1.7-0.7-3.2-1.7-4.4-3.1
			c-1.2-1.4-2.1-3-2.8-4.9c-0.6-1.9-1-4.1-1-6.6C63.1,23.1,63.5,20.9,64.1,18.9z"/>
	</g>
	<path class="st0" d="M156.2,0.4h-9.4c-1,0-1.8,0.3-2.4,0.8c-0.7,0.5-1.1,1.1-1.3,1.7l-9.6,26.3c-0.4,1.1-0.8,2.4-1.2,3.7
		s-0.8,2.8-1.1,4.2c-0.4-1.5-0.8-2.9-1.2-4.2s-0.9-2.6-1.3-3.7L119,2.9c-0.3-0.7-0.7-1.3-1.4-1.8s-1.5-0.7-2.5-0.7h-9.3l20,49.1
		h10.5L156.2,0.4z"/>
	<path class="st2" d="M154.9,49.1c0.7,0.3,1.5,0.4,2.4,0.4c0.8,0,1.6-0.1,2.4-0.4c0.7-0.3,1.4-0.7,1.9-1.2s1-1.1,1.3-1.8
		s0.5-1.5,0.5-2.3s-0.2-1.6-0.5-2.3s-0.7-1.3-1.3-1.8c-0.5-0.5-1.2-0.9-1.9-1.2s-1.5-0.5-2.4-0.5s-1.7,0.2-2.4,0.5s-1.4,0.7-1.9,1.2
		s-1,1.1-1.3,1.8s-0.5,1.5-0.5,2.3s0.2,1.6,0.5,2.3s0.7,1.3,1.3,1.8S154.2,48.9,154.9,49.1z"/>
	<g>
		<path class="st1" d="M196.9,17.3c-0.3-0.9-0.6-1.9-1-3c-0.4-1.2-0.8-2.4-1.2-3.8c-0.4,1.4-0.7,2.6-1.1,3.8c-0.4,1.2-0.8,2.2-1.1,3
			l-4.6,13.4h13.6L196.9,17.3z"/>
		<path class="st2" d="M182.2,47.1l2.9-8.6H204l2.9,8.6c0.3,0.7,0.7,1.3,1.4,1.8s1.5,0.7,2.5,0.7h9L200.6,0.4h-11.8l-19.3,49.1h9
			c1,0,1.8-0.3,2.4-0.8C181.6,48.3,182,47.7,182.2,47.1z M192.4,17.4c0.3-0.9,0.7-1.9,1.1-3c0.4-1.2,0.8-2.4,1.1-3.8
			c0.4,1.3,0.8,2.6,1.2,3.8s0.7,2.2,1,3l4.6,13.5h-13.6L192.4,17.4z"/>
	</g>
	<path class="st2" d="M225.8,0.4v29.1c0,3,0.5,5.8,1.5,8.3s2.4,4.7,4.2,6.5s4.1,3.2,6.7,4.2c2.6,1,5.6,1.5,9,1.5
		c3.3,0,6.3-0.5,8.9-1.5s4.9-2.4,6.7-4.2c1.8-1.8,3.3-4,4.3-6.5s1.5-5.3,1.5-8.3V0.4H257v29.1c0,1.7-0.2,3.3-0.7,4.6
		c-0.4,1.4-1.1,2.5-1.9,3.5c-0.8,0.9-1.9,1.7-3.1,2.2c-1.2,0.5-2.6,0.8-4.2,0.8s-2.9-0.3-4.2-0.8c-1.2-0.5-2.3-1.2-3.1-2.2
		s-1.5-2.1-1.9-3.5s-0.7-2.9-0.7-4.6V0.4H225.8z"/>
</g>
<g>
	<path class="st2" d="M325.8,20.2h-34c-5.5,0-9.9-4.4-9.9-9.9v0c0-5.5,4.4-9.9,9.9-9.9h34c5.5,0,9.9,4.4,9.9,9.9v0
		C335.7,15.8,331.2,20.2,325.8,20.2z"/>
	<g>
		<path class="st3" d="M292,5.5h3c1.4,0,2.4,0.2,3,0.6c0.6,0.4,0.9,1,0.9,1.9c0,0.6-0.1,1.1-0.4,1.4c-0.3,0.4-0.6,0.6-1.1,0.7v0.1
			c0.6,0.1,1.1,0.4,1.3,0.8s0.4,0.9,0.4,1.5c0,0.9-0.3,1.6-1,2.1c-0.6,0.5-1.5,0.7-2.6,0.7H292V5.5z M294.1,9.3h1.2
			c0.6,0,1-0.1,1.2-0.3c0.2-0.2,0.4-0.5,0.4-0.9c0-0.4-0.1-0.6-0.4-0.8c-0.3-0.2-0.7-0.2-1.3-0.2h-1.1V9.3z M294.1,11v2.5h1.3
			c0.6,0,1-0.1,1.2-0.3c0.3-0.2,0.4-0.5,0.4-1c0-0.8-0.6-1.2-1.7-1.2H294.1z"/>
		<path class="st3" d="M307.6,15.2h-5.6V5.5h5.6v1.7h-3.5v2.1h3.3V11h-3.3v2.5h3.5V15.2z"/>
		<path class="st3" d="M314.3,15.2h-2v-8h-2.6V5.5h7.3v1.7h-2.6V15.2z"/>
		<path class="st3" d="M325.3,15.2l-0.7-2.3h-3.5l-0.7,2.3h-2.2l3.4-9.7h2.5l3.4,9.7H325.3z M324.1,11.1c-0.6-2.1-1-3.3-1.1-3.5
			c-0.1-0.3-0.1-0.5-0.2-0.6c-0.1,0.6-0.6,2-1.2,4.2H324.1z"/>
	</g>
</g>
</svg>
