<?xml version="1.0" encoding="utf-8"?>
<!-- Generator: Adobe Illustrator 20.0.0, SVG Export Plug-In . SVG Version: 6.00 Build 0)  -->
<svg version="1.1" id="Layer_1" xmlns="http://www.w3.org/2000/svg" xmlns:xlink="http://www.w3.org/1999/xlink" x="0px" y="0px"
	 viewBox="0 0 308.7 315.3" style="enable-background:new 0 0 308.7 315.3;" xml:space="preserve">
<style type="text/css">
	.st0{fill:none;stroke:#1B8197;stroke-width:3;stroke-miterlimit:10;}
	.st1{fill:none;stroke:#1D8197;stroke-width:3;stroke-miterlimit:10;}
	.st2{fill:#1D8197;}
	.st3{fill:#1B8197;}
</style>
<g>
	<path class="st0" d="M1374.5,557.3c0,19-15.4,34.4-34.4,34.4c-19,0-34.4-15.4-34.4-34.4c0-19,15.4-34.4,34.4-34.4
		c12.5,0,23.5,6.7,29.5,16.7"/>
	<path class="st1" d="M1369.8,521.4v17.7c0,0.3-0.3,0.6-0.6,0.6h-17.7"/>
	<circle class="st2" cx="1369.8" cy="521.4" r="1.5"/>
	<circle class="st2" cx="1351.5" cy="539.7" r="1.5"/>
	<circle class="st2" cx="1374.5" cy="557.3" r="1.5"/>
</g>
<g>
	<path class="st3" d="M154.3,315.3c85.1,0,154.3-69.2,154.3-154.3S239.4,6.6,154.3,6.6c-53.9,0-104.6,28.7-132.4,75L33,88.3
		c25.8-43,71.2-68.7,121.3-68.7c78,0,141.4,63.4,141.4,141.4s-63.4,141.4-141.4,141.4S12.9,239,12.9,161H0
		C0,246.1,69.2,315.3,154.3,315.3z"/>
	<path class="st2" d="M29.2,91.6h76.2V78.7H33V6.3H20.1v76.2C20.1,87.5,24.2,91.6,29.2,91.6z"/>
	<circle class="st2" cx="26.5" cy="6.5" r="6.5"/>
	<circle class="st2" cx="105.4" cy="85.2" r="6.5"/>
	<circle class="st2" cx="6.5" cy="161" r="6.5"/>
</g>
</svg>
