<?xml version="1.0" encoding="utf-8"?>
<!-- Generator: Adobe Illustrator 20.0.0, SVG Export Plug-In . SVG Version: 6.00 Build 0)  -->
<svg version="1.1" id="Layer_1" xmlns="http://www.w3.org/2000/svg" xmlns:xlink="http://www.w3.org/1999/xlink" x="0px" y="0px"
	 viewBox="0 0 308.7 315.3" style="enable-background:new 0 0 308.7 315.3;" xml:space="preserve">
<style type="text/css">
	.st0{fill:none;stroke:#1B8197;stroke-width:3;stroke-miterlimit:10;}
	.st1{fill:none;stroke:#1D8197;stroke-width:3;stroke-miterlimit:10;}
	.st2{fill:#1D8197;}
	.st3{fill:#1B8197;}
</style>
<g>
	<path class="st0" d="M1374.5,557.3c0,19-15.4,34.4-34.4,34.4c-19,0-34.4-15.4-34.4-34.4c0-19,15.4-34.4,34.4-34.4
		c12.5,0,23.5,6.7,29.5,16.7"/>
	<path class="st1" d="M1369.8,521.4v17.7c0,0.3-0.3,0.6-0.6,0.6h-17.7"/>
	<circle class="st2" cx="1369.8" cy="521.4" r="1.5"/>
	<circle class="st2" cx="1351.5" cy="539.7" r="1.5"/>
	<circle class="st2" cx="1374.5" cy="557.3" r="1.5"/>
</g>
<g>
	<path class="st3" d="M154.3,315.3C69.2,315.3,0,246.1,0,161S69.2,6.6,154.3,6.6c53.9,0,104.6,28.7,132.4,75l-11.1,6.6
		c-25.8-43-71.2-68.7-121.3-68.7C76.4,19.5,12.9,83,12.9,161s63.4,141.4,141.4,141.4S295.8,239,295.8,161h12.9
		C308.7,246.1,239.4,315.3,154.3,315.3z"/>
	<path class="st2" d="M279.4,91.6h-76.2V78.7h72.4V6.3h12.9v76.2C288.6,87.5,284.5,91.6,279.4,91.6z"/>
	<circle class="st2" cx="282.1" cy="6.5" r="6.5"/>
	<circle class="st2" cx="203.3" cy="85.2" r="6.5"/>
	<circle class="st2" cx="302.2" cy="161" r="6.5"/>
</g>
</svg>
