<?xml version="1.0" encoding="utf-8"?>
<!-- Generator: Adobe Illustrator 20.1.0, SVG Export Plug-In . SVG Version: 6.00 Build 0)  -->
<svg version="1.2" baseProfile="tiny" id="Layer_1" xmlns="http://www.w3.org/2000/svg" xmlns:xlink="http://www.w3.org/1999/xlink"
	 x="0px" y="0px" viewBox="0 0 22 22" xml:space="preserve">
<path fill="#043751" d="M15.8,10.5c0-1.5-0.5-2.8-1.6-3.8s-2.3-1.6-3.8-1.6S7.7,5.6,6.7,6.7S5.1,9,5.1,10.5s0.5,2.8,1.6,3.8
	s2.3,1.6,3.8,1.6s2.8-0.5,3.8-1.6S15.8,11.9,15.8,10.5z M22,20.5c0,0.4-0.2,0.8-0.5,1.1c-0.3,0.3-0.7,0.5-1.1,0.5
	c-0.4,0-0.8-0.2-1.1-0.5l-4.1-4.1c-1.4,1-3,1.5-4.8,1.5c-1.1,0-2.2-0.2-3.3-0.7s-1.9-1-2.7-1.8s-1.4-1.7-1.8-2.7S2,11.6,2,10.5
	s0.2-2.2,0.7-3.3s1-1.9,1.8-2.7s1.7-1.4,2.7-1.8S9.3,2,10.5,2s2.2,0.2,3.3,0.7s1.9,1,2.7,1.8s1.4,1.7,1.8,2.7s0.7,2.1,0.7,3.3
	c0,1.8-0.5,3.4-1.5,4.8l4.1,4.1C21.9,19.7,22,20,22,20.5z"/>
</svg>
