<?xml version="1.0" encoding="utf-8"?>
<!-- Generator: Adobe Illustrator 19.1.0, SVG Export Plug-In . SVG Version: 6.00 Build 0)  -->
<svg version="1.1"
	 id="Layer_1" xmlns:rdf="http://www.w3.org/1999/02/22-rdf-syntax-ns#" xmlns:dc="http://purl.org/dc/elements/1.1/" xmlns:cc="http://creativecommons.org/ns#"
	 xmlns="http://www.w3.org/2000/svg" xmlns:xlink="http://www.w3.org/1999/xlink" x="0px" y="0px" viewBox="-73 138.1 251.8 124.9"
	 style="enable-background:new -73 138.1 251.8 124.9;" xml:space="preserve">
<g id="g7">
	<path id="path9" d="M33,211.6c-0.1,0.1-0.2,0.3-0.3,0.3"/>
	<path id="path11" d="M36,188.7c0.3,0,0.6-0.3,0.6-0.6c0-0.3-0.3-0.6-0.6-0.6s-0.6,0.3-0.6,0.6C35.3,188.4,35.6,188.7,36,188.7"/>
	<path id="path13" d="M64.4,162.8H42.3v17.8c0,1.7,0.7,3.2,1.7,3.7l8.5,5.1c0.2,0.2,0.5,0.3,0.8,0.3s0.5-0.1,0.7-0.3l8.6-5.2
		c1-0.5,1.7-2,1.7-3.7C64.3,180.5,64.4,162.8,64.4,162.8z M49.6,168h-1.9v-4.6h1.9V168z M48.2,169.6l0.3-0.3l-0.2-0.3h0.4l0.2-0.4
		l0.2,0.4h0.4l-0.2,0.3l0.3,0.3l-0.3,0.1v0.4l-0.3-0.2l-0.3,0.2v-0.4C48.7,169.7,48.2,169.6,48.2,169.6z M42.9,170.9h2.3v4.3h-2.3
		V170.9z M43.3,169h0.4l0.2-0.4l0.2,0.4h0.4l-0.2,0.3l0.3,0.3l-0.3,0.1v0.4l-0.3-0.2l-0.3,0.2v-0.4l-0.3-0.1l0.3-0.3
		C43.7,169.3,43.3,169,43.3,169z M45.9,173.4h0.4l0.2-0.4l0.2,0.4h0.4l-0.2,0.3l0.3,0.3l-0.4,0.1v0.4l-0.3-0.2l-0.3,0.2v-0.4
		l-0.3-0.1l0.3-0.3C46.2,173.7,45.9,173.4,45.9,173.4z M47.4,169.9c0-0.1-0.2-0.1-0.2-0.1c-0.2,0-0.3,0.3-0.5,0.3
		c-0.1,0-0.2,0-0.2-0.1s0.3-0.2,0.4-0.3c-1.4,0-1.5,0.7-1.7,0.7c-0.4,0,0.3-0.7,0.5-0.9c-0.3,0-0.5-0.4-0.8-0.6
		c0.1-0.2,0.2-0.1,0.4,0c0-0.2,0.1-0.3,0.4-0.3c0.6,0,0.5,0.6,0.6,0.6s0-0.6,0.4-0.6c0.6,0,1.4,1.6,0.7,1.6
		C47.2,170.2,47.4,170,47.4,169.9 M45.8,165.1l0.3-0.3l-0.2-0.3h0.4l0.2-0.4l0.2,0.4h0.4l-0.2,0.3l0.3,0.3l-0.3,0.1v0.4l-0.3-0.2
		l-0.3,0.2v-0.4C46.3,165.2,45.8,165.1,45.8,165.1z M45.2,168h-2.3v-4.6h2.3V168z M49.6,187l-5.3-3.2c-0.9-0.6-1.3-1.7-1.4-2.9v-5
		h6.7V187z M47.7,170.9h1.9v4.3h-1.9V170.9z M56.4,187.3l-2.4,1.5c-0.2,0.1-0.4,0.2-0.6,0.2s-0.5-0.1-0.7-0.2l-2.4-1.4v-11.5h6.2
		L56.4,187.3L56.4,187.3z M56.4,175.3h-6.2v-11.9h6.2V175.3z M63.7,180.9c-0.1,1.3-0.6,2.3-1.4,2.9L57,187v-11.1h6.7
		C63.7,175.9,63.7,180.9,63.7,180.9z M63.7,175.3H57v-11.9h6.7V175.3z"/>
	<path id="path15" d="M49.3,180c0-0.1-0.8,0.3-0.6,0.2c0-0.2,0.5-0.7,0.7-0.9c0-0.3-0.4,0-0.8,0.2c1.3-1.8,0.5-1.1-0.3-0.9
		c1.1-1.2,0.8-1.2,0-0.8c0.7-0.5,0.8-1.1,0.7-1.3c-0.6,0.8-1.2,0.7-1.2,1.4c0,0.5-0.2,1.3-0.4,1.6c-0.3,0.4-0.1-1.3-0.9-1.3
		c-0.3,0-0.9,0-1.1,0.3c0.2,0,0.4,0.4,0.4,0.6c0,0.2,0.2,0.7-0.1,0.7s-0.6-0.6-0.6-0.9v-0.7c0-0.7-1.2-1.7-1.6-1.7
		c0,0.5,0.6,0.6,0.6,1.2c-0.3,0-0.7-0.5-0.7-0.2s0.4,0.4,0.4,0.7s-0.5-0.1-0.5,0.2s0.3,0.2,0.3,0.5c-0.2-0.1-0.4,0-0.4,0.1
		c0,0.1,0.1,0.2,0.2,0.3c-0.1,0.1-0.1,0.2-0.1,0.6c0,1.4,0.9,2.1,1.5,2.1c0.5,0,0.4-0.3,0.4-0.5c0,0.2,0.2-0.1,0.2,0.3
		c0,0.4-0.4,0.2-0.4,0.6c0,0.5,0.7,0,0.7,0.5c0,0.7-0.1,0.7-0.1,0.9s0.7-0.2,0.7-0.3c0.2,0.1,0.2,0.6,0.5,0.6c0.2,0,0.3-0.5,0.4-0.6
		c-0.1,0,0.7,0.5,0.7,0.3c0-0.7-0.3-0.4-0.3-0.8c0-0.4,0.9-0.3,0.8-0.5c-0.1-0.2-0.2-0.1-0.3-0.4c0,0.1-0.7-1,0.2-0.5
		C49.2,182,49.3,180.1,49.3,180"/>
	<path id="path17" d="M72.8,184.6c0.4,0,0.7-0.3,0.7-0.6c0-0.4-0.3-0.6-0.7-0.6s-0.7,0.3-0.7,0.6S72.4,184.6,72.8,184.6"/>
	<path id="path19" d="M69.9,186.4c0.4,0,0.7-0.3,0.7-0.6c0-0.4-0.3-0.6-0.7-0.6s-0.7,0.3-0.7,0.6C69.1,186.1,69.5,186.4,69.9,186.4"
		/>
	<path id="path21" d="M35,190.4c0.4,0,0.7-0.3,0.7-0.6c0-0.4-0.3-0.6-0.7-0.6s-0.7,0.3-0.7,0.6C34.2,190.1,34.6,190.4,35,190.4"/>
	<path id="path23" d="M37.2,190.6c0.4,0,0.7-0.3,0.7-0.6c0-0.4-0.3-0.6-0.7-0.6s-0.7,0.3-0.7,0.6S36.8,190.6,37.2,190.6"/>
	<path id="path25" d="M100.1,160.1c1.1,1.3,1.3,3.3,0.5,4.8c-0.4,0-0.3-0.6-0.4-0.9c-0.8-1.4-1.4-3.3-0.7-4.9
		C100,159.2,99.8,159.9,100.1,160.1"/>
	<path id="path27" d="M7.9,161.9c-0.2,0.9-0.2,2.2,0,3.1c-0.2,0.1-0.2-0.3-0.4-0.2c-1.5-1.1-0.8-3.2-1.2-4.7
		c0.1-0.1,0.3-0.2,0.4-0.1C7.4,160.4,7.7,161.1,7.9,161.9"/>
	<path id="path29" d="M103.4,162c0.2,0.4-0.2,0.9-0.5,1c-0.3,0.1-0.7-0.1-1-0.4c-0.1-0.4,0.1-0.8,0.5-1
		C102.8,161.6,103.1,161.6,103.4,162"/>
	<path id="path31" d="M5.5,163.7c-0.1,0.3-0.2,0.7-0.5,0.9c-0.2,0-0.6,0-0.7-0.2c-0.2-0.2-0.3-0.5-0.2-0.8c0.2-0.3,0.5-0.3,0.7-0.3
		C5.1,163.3,5.4,163.4,5.5,163.7"/>
	<path id="path33" d="M104.9,164.4c0.1,0.2,0.1,0.4,0,0.6c-0.3,0.3-0.7,0.5-1,0.3c-0.3-0.2-0.3-0.4-0.4-0.7c0.1-0.3,0.4-0.6,0.7-0.7
		C104.4,164,104.6,164.2,104.9,164.4"/>
	<path id="path35" d="M102.7,164.4c0.3,0.2,0.1,0.5,0,0.8c-0.2,0.2-0.5,0.5-0.8,0.4c-0.2-0.2-0.4-0.2-0.5-0.5c0-0.4,0.2-0.8,0.5-0.9
		C102.3,164.1,102.5,164.3,102.7,164.4"/>
	<path id="path37" d="M99.9,165c0,0.4,0,1-0.5,1c-0.5,0.2-0.8-0.2-0.9-0.5c0-0.4,0.2-0.8,0.6-0.9C99.4,164.6,99.7,164.7,99.9,165"/>
	<path id="path39" d="M9.7,165.2c0.1,0.4-0.3,0.6-0.5,0.8c-0.3,0.1-0.6-0.2-0.8-0.4c-0.3-0.3,0.1-0.5,0.2-0.7
		C9,164.5,9.6,164.7,9.7,165.2"/>
	<path id="path41" d="M7.4,165.3c0,0.3-0.2,0.6-0.4,0.7c-0.3,0.1-0.6-0.1-0.8-0.4c-0.2-0.4,0-0.7,0.3-0.9C7,164.6,7.3,165,7.4,165.3
		"/>
	<path id="path43" d="M90.6,165.4c0.4,0.8,0.7,1.8,0.8,2.8c-0.2,0.7,0.1,1.7-0.4,2.2c-0.5-0.2-0.6-0.9-0.9-1.2
		c-0.7-1.4-0.1-2.9,0.2-4.3C90.4,164.9,90.4,165.3,90.6,165.4"/>
	<path id="path45" d="M5.6,165.9c0.1,0.5-0.2,0.7-0.5,1c-0.5,0.1-0.8-0.2-1-0.5c0-0.4,0.2-0.8,0.5-0.9C5,165.4,5.4,165.6,5.6,165.9"
		/>
	<path id="path47" d="M96.6,167c0.5,1.1,0.5,2.5,0.2,3.7l-0.2,0.2c-0.5-1-1.3-2-1.6-3.1c0-0.8,0.2-1.6,0.5-2.2
		c0.3-0.2,0.4,0,0.5,0.3C96.1,166.3,96.3,166.8,96.6,167"/>
	<path id="path49" d="M101.5,166.3c0,0.4-0.2,0.8-0.6,0.9c-0.4,0.1-0.8,0-0.9-0.5c-0.1-0.4,0.1-0.7,0.4-0.9
		C100.9,165.6,101.3,166,101.5,166.3"/>
	<path id="path51" d="M7.5,167.5c0,0.3-0.3,0.7-0.6,0.7c-0.3,0.2-0.5-0.2-0.8-0.3c-0.1-0.3-0.2-0.6,0-0.9c0.1-0.2,0.4-0.2,0.6-0.3
		C7,167,7.4,167.2,7.5,167.5"/>
	<path id="path53" d="M9.1,167.3c0.2,0.4-0.3,0.6-0.4,0.8c-0.5,0.2-0.7-0.2-0.9-0.5c-0.1-0.4,0.2-0.6,0.4-0.9
		C8.7,166.7,9,167,9.1,167.3"/>
	<path id="path55" d="M102.6,167.2c0,0.5-0.8,1-0.9,1.5c-0.4,1-1.3,1.8-2.4,2.2c-0.2,0.2-0.5,0.5-0.9,0.5c-0.1-0.8,0.6-1.5,1-2.2
		C100.3,168.2,101.4,167.5,102.6,167.2"/>
	<path id="path57" d="M6.7,168.9c0.6,0.7,0.9,1.2,1.6,1.8c0,0.2-0.1,0.4-0.3,0.4c-1.9-0.1-3.2-2.1-4.1-3.4c0.1-0.4,0.6-0.1,0.9-0.1
		C5.4,168,6.2,168.2,6.7,168.9"/>
	<path id="path59" d="M103.1,169.4c-0.1,1.7-0.9,3.4-2.4,4.2c-0.4,0.2-0.9,0.6-1.3,0.3c0.8-1.7,2-3,3.4-4.5H103.1z"/>
	<path id="path61" d="M95.7,170.5c0.1,0.6-0.2,0.9-0.7,1.1c-0.4,0-0.7-0.3-0.9-0.6c0-0.4,0.2-0.7,0.5-0.9c0.1-0.1,0.3-0.1,0.5-0.1
		C95.4,170.1,95.5,170.3,95.7,170.5"/>
	<path id="path63" d="M4.6,170.9c0.7,0.5,1.4,1.2,2.1,1.8c-0.5,0.4-1.1,0-1.7,0c-1.3-0.5-2.2-1.6-3.5-2c0-0.4,0.5-0.3,0.8-0.4
		C3.1,170.3,3.8,170.7,4.6,170.9"/>
	<path id="path65" d="M45.8,159.4c-2.2-0.9-3.6,1.4-5.8,1.1c-0.3,0.2-0.2,0.4-0.3,0.6c-0.1,0.1-0.3,0-0.4,0
		c-0.1-0.9-0.4-1.8-0.5-2.7c-0.2-0.4-0.1-0.9-0.3-1.3c-1.2-3.4,3-0.8,3.8-2.8c0.7-1.7-1.4-1.9-2.1-3.1v-0.5
		c-0.6-0.6-1.3-0.8-1.7-1.6c0.3-1,0.4-2,0.1-3c0-0.2-0.2-0.5-0.5-0.4c-0.7,1-1.3,1.8-2,2.8c-0.7-0.5-1.4-1.2-2.3-1.7
		c-0.5-0.1-1.1-0.7-1.7-0.5c-0.1,0.2,0,0.4,0.1,0.6c0,1.5,0.8,2.7,1.9,3.8l0.1,0.6c-0.7,1.6-0.5,3.4-0.7,5.1
		c-1.7,4.4-4.5,8.7-8.4,11.8c-2.2,2.5-4.8,4.9-5.2,8.3c-0.1,0.5,0.1,1.2-0.3,1.6c-1.3-0.5-2.5-1.1-3.6-1.9c-1.8-1.2-4.3-1.1-5.5-3.3
		c-0.5-0.9,0.1-1.8,0.5-2.4c1.3-1.2,1.1-3.5,0.4-5c-0.2,0-0.2,0.2-0.3,0.2c-0.1,2.3-1.9,3.9-1.2,6.4c0.2,0.7,0.5,1.2,0.7,1.9
		c-0.3-0.1-0.7-0.1-0.9-0.2c-0.8-0.1-1.7-0.5-2.6-0.3c-1.8,0.8-4.2-0.2-5.6,1.4c-0.2,0-0.5,0.1-0.5,0.4c0.8,0,1.7,0.2,2.5,0.2
		c1.3,0.2,2.2-0.9,3.2-1.4h0.2c0.4-0.4,1-0.2,1.5-0.2c2.4,0.3,4.3,1.4,6.3,2.6v0.2c-0.8,0.3-1.7,0.6-2.4,1c-0.9,0.7-1.9,1.5-2.2,2.6
		c-0.6,1,0.2,1.8,0.6,2.6c0,0.4,0.1,0.9,0.4,1c1.2-1.3,0.1-2.9,0.3-4.5c0.3-1.2,1.4-1.7,2.5-2c2.2-0.9,3.8,0.9,5.5,1.9
		c0,1.8,0.2,3.5-0.2,5.2c-0.5,0.2-1.2,0.3-1.8,0.3c-3,0.2-5.4,1.9-8.2,2.8C8,188,6.5,188,5.3,188.5c1,0.3,2-0.1,3-0.1
		c3.8-0.5,6.7-3.5,10.7-2.9l0.1,0.1c-0.5,1-1.1,1.8-1.8,2.5c-0.1-0.4-0.2-0.8-0.5-1c-0.3-0.2-0.7,0-0.9,0.3c-0.1,0.2-0.1,0.4,0,0.6
		c0.2,0.3,0.5,0.4,0.8,0.5c-0.1,0.3-0.5,0.5-0.7,0.8c-1.1,1.8-3.3,1.1-4.5,2.4c-0.2,0.3-0.9,0.4-0.6,0.9c1.5,0.2,2.9-0.2,4-1
		c1.4-1.6,2.9-3.1,4.4-4.6c0.2,1.2-0.1,2.5-0.8,3.5c-0.3-0.2-0.6-0.5-1-0.6c-0.4,0.1-0.7,0.5-0.7,0.8c0.2,0.3,0.3,0.6,0.6,0.8
		c-1.3,0.9-3,1-4.5,1.4c-2.8,0.3-5.5,0.6-8.4,0.6c-1.3-0.1-2.9,0.4-4.2,0c-1.5,0.3-3-0.2-4.2,0.6c-0.2,0.2,0,0.4,0,0.6
		c1.8,1.2,4.2,0.2,6.2,0.6h15.2c1.1,0,2.2-0.1,3.1-0.6c2-1.1,3-3.1,4-5.1c0.4-0.7,0.7-1.5,0.8-2.3c0.4-1.3,1.6-2.3,2.9-2.4
		c0.2,2-0.2,4-0.7,5.9c-0.2,1.2-1,2.4-0.5,3.8c0.1,0.6,0.8,0.6,1.3,0.7c4.7-0.1,9.3-0.3,14.2,0.1c0.9,0.2,1.7,0.4,2.6,0.4
		c0.1-0.1,0.3-0.2,0.2-0.4c-0.1-0.4-0.4-1-0.9-1.1c-0.1-0.2-0.4-0.2-0.5-0.3c-2.5-1.4-5.4-0.7-8.3-0.6c-1.5,0.2-3,0.4-4.3-0.4
		c-0.6-0.7-0.2-2.9-0.2-2.9c0-0.9,2.1-7,2.4-7.5c0.1-0.6,0.3-1.1,0.2-1.8c0.3-0.8,0.2-1.8,0.2-2.6c0.2-1.2,0.8-2.4,1.2-3.6
		c0.2-0.6,0.4-1.2,0.7-1.8c0.2-0.7,0.3-1.4,0.8-2c1.3,0.8,2.5,0.8,3.1,2.2l0.5,3.2c0,0.2,0.2,0.6,0.4,0.4c1-0.7,0.7-2.1,0.7-3.1
		c0.2-1.2-0.6-1.8-1-2.8c-0.3-0.2-0.7-1.1-0.7-1.1c-0.2-0.9-2-1.4-1.6-2.5c0.2-0.9,0.5-1.7,1.3-2.2c0.1,0.1,0.2,0.2,0.2,0.3l0.5-0.3
		v-3.2c1.2,0,3.1,0.2,4.4,0.2c0.3,0.1,0.6,0.4,1,0.4l0.3-0.4l3.1-0.6C47.9,160.9,47.1,159.4,45.8,159.4"/>
	<path id="path67" d="M49.2,160.8c0.1,0,0.2,0,0.3-0.1L49.2,160.8z"/>
	<path id="path69" d="M15.7,171.6c0,0.5-0.2,0.7-0.6,0.9c-0.3-0.1-0.5-0.2-0.7-0.5c-0.2-0.4,0.2-0.7,0.5-0.9
		C15.2,171.2,15.6,171.2,15.7,171.6"/>
	<path id="path71" d="M13.2,171.6c0.2,0.2,0.3,0.6,0.2,0.9c-0.3,0.2-0.7,0.4-0.9,0.1c-0.2-0.2-0.5-0.5-0.3-0.8
		C12.4,171.5,12.8,171.3,13.2,171.6"/>
	<path id="path73" d="M66.8,172"/>
	<path id="path75" d="M96.1,172.7c0.2,0.4-0.2,0.7-0.5,0.9c-0.4-0.1-0.9-0.2-0.9-0.7c0-0.3,0.3-0.5,0.6-0.6
		C95.6,172.2,95.9,172.4,96.1,172.7"/>
	<path id="path77" d="M98.1,172.6c0.1,0.2,0.4,0.5,0.1,0.7c-0.2,0.1-0.3,0.2-0.4,0.3c-0.4,0.1-0.8-0.1-0.9-0.5
		c-0.1-0.4,0.3-0.6,0.6-0.8C97.8,172.2,97.9,172.4,98.1,172.6"/>
	<path id="path79" d="M3.5,173c-0.2,0.5-0.5,0.7-1,0.5c-0.1-0.1-0.2-0.3-0.3-0.5c0-0.3,0.1-0.5,0.4-0.7C3,172.4,3.4,172.6,3.5,173"
		/>
	<path id="path81" d="M16.5,173.7c0,0.3-0.4,0.6-0.7,0.7c-0.4,0-0.7-0.3-0.8-0.5c0-0.3,0.2-0.7,0.5-0.8
		C15.8,173,16.3,173.3,16.5,173.7"/>
	<path id="path83" d="M14.2,173.4c0.1,0.1,0.2,0.4,0.1,0.6c-0.2,0.2-0.6,0.5-1,0.3c-0.2-0.2-0.5-0.4-0.4-0.7
		c0.2-0.2,0.3-0.4,0.6-0.5C13.8,173.1,14,173.3,14.2,173.4"/>
	<path id="path85" d="M104,173.9c0,0.3-0.3,0.6-0.5,0.7c-0.3,0.1-0.7,0-0.8-0.2c-0.2-0.1-0.2-0.4-0.2-0.6c0.2-0.3,0.5-0.4,0.7-0.5
		C103.6,173.4,103.8,173.7,104,173.9"/>
	<path id="path87" d="M106.5,174.2c-0.1,0.3-0.4,0.7-0.7,0.7c-0.2,0-0.7-0.1-0.6-0.5c0-0.3,0.2-0.5,0.3-0.6
		C105.9,173.7,106.4,173.9,106.5,174.2"/>
	<path id="path89" d="M7.9,174.8c0.1,0.5-0.1,0.8-0.5,0.9c-0.3,0.2-0.5,0-0.7-0.2s-0.3-0.5-0.2-0.8c0.1-0.3,0.4-0.3,0.7-0.4
		C7.5,174.4,7.7,174.5,7.9,174.8"/>
	<path id="path91" d="M9.8,175.1c0.1,0.3-0.2,0.4-0.3,0.7c-0.2,0.1-0.5,0.2-0.7,0.1c-0.3-0.2-0.6-0.6-0.3-0.9
		C8.8,174.4,9.6,174.7,9.8,175.1"/>
	<path id="path93" d="M101.8,174.9c0,0.4-0.3,0.7-0.5,0.9c-0.3,0.1-0.7-0.2-0.8-0.5c0-0.3,0.2-0.5,0.4-0.7
		C101.2,174.6,101.6,174.6,101.8,174.9"/>
	<path id="path95" d="M104.9,175.6c-0.1,0.4,0,0.7-0.4,1c-0.3,0.1-0.7,0-0.9-0.2c-0.2-0.2-0.3-0.5-0.2-0.8c0.2-0.3,0.5-0.5,0.9-0.5
		C104.6,175.3,104.7,175.5,104.9,175.6"/>
	<path id="path97" d="M6.4,176.4c0.2,0.3-0.2,0.4-0.3,0.5c-0.3,0.2-0.5,0-0.8-0.1c-0.3-0.2-0.2-0.5-0.1-0.7
		C5.6,175.5,6.3,175.9,6.4,176.4"/>
	<path id="path99" d="M102.5,177.1c0.2,0,0.1,0.3,0,0.3c-0.9,0.5-2.3,0.6-3.1-0.2c-0.5-0.4-1-0.5-1.5-0.9c0.2-0.5,0.9-0.5,1.4-0.6
		C100.4,176,101.3,177.1,102.5,177.1"/>
	<path id="path101" d="M8.3,176.8c0.1,0.3-0.2,0.4-0.2,0.7c-0.2,0.2-0.5,0.2-0.7,0.1c-0.3-0.2-0.5-0.7-0.3-1
		C7.5,176.1,8,176.3,8.3,176.8"/>
	<path id="path103" d="M11.6,177c0.2,0.4-0.1,0.7-0.4,0.9c-0.3,0.2-0.5-0.1-0.7-0.1c-0.2-0.3-0.5-0.6-0.2-0.9
		C10.7,176.3,11.4,176.6,11.6,177"/>
	<path id="path105" d="M56.2,178.6c-0.1,0.8-1.4-0.1-1.2,0.9c0.2,0.7,0.3,1.6,0.8,2.2c0.4,0.5,0.2,1.3,0.1,2c-0.3,0.6-0.9,1-1.5,1.3
		c-1.1-0.1-2.7,0.6-3.2-0.8c-0.2-0.6-0.6-1.2-0.6-1.8c0.1-0.1,0.3-0.1,0.4-0.2c0-0.3-0.3-0.4-0.3-0.7c1.2-0.2-0.5-1.3,0.5-1.4
		c0.9,0.9,2.3,0.6,3.1,1.6c0.2,0.1,0.3,0.4,0.5,0.5c-0.1-0.9-0.6-1.8-0.7-2.8c-0.1-0.5,0.1-1,0.4-1.3
		C55.3,177.5,55.8,178.2,56.2,178.6"/>
	<path id="path107" d="M15,178.4c0.1,0.4-0.2,0.6-0.4,0.8c-0.3,0.2-0.5-0.2-0.7-0.4c-0.1-0.4,0.2-0.6,0.4-0.8
		C14.6,178,14.9,178.1,15,178.4"/>
	<path id="path109" d="M38.8,178.8c0.5,1.5,0.3,3.1-0.5,4.3c0,0.3,0.1,0.8-0.3,0.8c-1-1.4-0.3-3.5,0.2-5
		C38.2,178.6,38.7,178.4,38.8,178.8"/>
	<path id="path111" d="M71.8,179.5c0.5,1.1,0.6,2.5,0.1,3.6l-0.3,0.3c-0.4-0.9-0.8-1.8-0.9-2.8c0.2-0.7,0.4-1.3,0.5-2.1
		C71.6,178.5,71.6,179.2,71.8,179.5"/>
	<path id="path113" d="M18,180c-0.2,0.5-0.9,0.6-1.3,0.9c-0.9,0.7-2.3,0.9-3.4,0.7c1-1.4,2.5-2.2,4.4-1.8
		C17.8,179.8,18,179.8,18,180"/>
	<path id="path115" d="M2.2,181.3c1.4,1,1.8,2.4,2.7,3.8c0.1,0.2,0.5,0.2,0.3,0.5c-0.3,0.2-0.6-0.2-1-0.2c-1.5-0.7-2.4-2.3-2.3-4
		C1.8,181.3,2.1,181.3,2.2,181.3"/>
	<path id="path117" d="M70.3,182.5c0,0.4,0,0.8-0.3,0.9c-0.4,0.1-0.8-0.1-0.9-0.5c-0.1-0.3,0.1-0.4,0.2-0.6
		C69.5,182,70.1,182.2,70.3,182.5"/>
	<path id="path119" d="M86.5,184.6c0-0.7,0.2-1.4,0.3-2.1c0.1-0.2,0.2-0.5,0.2-0.8c0.9-1.2,2.8-0.9,4.3-0.7c0.6,0.3,1.3,0.3,1.9,0.4
		c0.3-0.2,0.7-0.2,1-0.2c1.2-0.7,0.4-2.1,0.5-3.2l-0.5-1.2c-0.1-0.2-0.2-0.5-0.3-0.8c-0.2-0.3-0.4-0.8-0.6-1c-0.7-1.7-1.9-2.7-3-4
		c-2-2.6-5-4-8.1-5c-3-1-6.1,0.3-8.9,1.3c-0.8-0.2-1.3-0.9-1.5-1.6c-0.2-1.5,0.2-2.9,0.7-4.1c0.1-1,0.8-1.7,1-2.6
		c0.7-2.2,1.4-4.3,1.6-6.7c0.1-1.4-1-2.4-2.1-3.1c-0.7-0.2-1.6-0.2-2.1,0.4c-0.5,1-1.6,1.7-2.5,2.2c-0.1,0.7,0.7,0.2,1,0.5
		c0.8,0.2,1.8-0.1,2.5,0.4c0.1,1.6-0.8,2.8-1.6,4c-1.3,1.9-2.7,3.9-3.5,6l-0.2-0.2l0.2,9.5c1.2,2,2.8,4.4,5.1,5.1
		c1.2,1,2.8,2.2,4.4,1.3c0.9-0.3,1,1,1.4,1.5c0.5,1.4-0.6,2.4-0.7,3.8l-1,2.1c-1.2,2.2-2.2,4.7-4,6.6c-0.6,0-0.9,0.6-1.5,0.7
		c-0.3,0.4-0.9,0.1-1.3,0.3c-1.2,0.5-2.9,0.2-3.7,1.3c0.1,0.1,0.2,0.2,0.3,0.2c2.3,0,5,0.2,7.5,0.1c0.3-0.1,0.6-0.4,0.6-0.7
		c-0.3-0.7,0.1-1.2,0.4-1.7c0.2-0.9,0.8-1.5,1.1-2.4c0.8-1.6,1.7-3.1,2.6-4.7l1.2-1.9c0.3-0.7,0.7-1.5,1.2-2.2
		c0.3-0.3,0.5-0.7,0.7-1c0-0.4-0.2-0.5-0.4-0.8c0.3-0.3,0.7-0.2,1-0.3c1,0.6,2,1.5,2.2,2.6l0.3,1l0.2,0.5l-0.1,1.3l0.2,1.2
		c0.2,1.9-0.2,3.8-0.3,5.6c-0.7,2.2-3.2,2-5.1,2.5c-0.5,0.1-1.4-0.1-1.4,0.7c2.2,0.5,4.9,0.2,7.2,0.2c0.4-0.2,0.5-0.5,0.7-0.9
		c0.1-0.5,0.6-0.9,0.4-1.5c-0.4-0.5,0-1.4-0.2-2.1c0.1-0.2,0.1-0.5,0-0.7c0.3-1.1,0.2-2.5,0.5-3.6L86.5,184.6L86.5,184.6z"/>
	<path id="path121" d="M105.5,183.1c-1.2,1.7-2.5,3.7-4.7,4.3c-0.2,0-0.3,0.1-0.4-0.1c1.3-1.4,2-3.6,4-4.1
		C104.7,183.1,105.1,182.9,105.5,183.1"/>
	<path id="path123" d="M0.3,185c-0.2,0.2,0,0.5-0.4,0.5c-0.3,0.2-0.7,0-0.8-0.4c-0.2-0.4,0.2-0.8,0.5-0.9
		C-0.1,184.5,0.2,184.6,0.3,185"/>
	<path id="path125" d="M11.4,185.5c0.1,0.3-0.3,0.3-0.5,0.4c-1.6,0.6-3.3,0-4.4-1.1c0-0.2,0-0.3,0.2-0.3
		C8.3,184.9,10.1,184.6,11.4,185.5"/>
	<path id="path127" d="M2.4,185c0.1,0.2,0.1,0.4,0.1,0.6c-0.2,0.3-0.6,0.4-1,0.3c-0.2-0.1-0.3-0.3-0.5-0.5c0-0.4,0.3-0.6,0.7-0.7
		C2,184.8,2.3,184.8,2.4,185"/>
	<path id="path129" d="M38.5,185.2c0.1,0.3-0.2,0.6-0.5,0.7c-0.3,0.1-0.7-0.1-0.8-0.3c-0.1-0.3,0-0.7,0.3-0.7
		C37.9,184.8,38.4,184.9,38.5,185.2"/>
	<path id="path131" d="M106.9,185.4c0.1,0.4-0.2,0.6-0.5,0.8c-0.2,0.1-0.5,0-0.7-0.1c0-0.2-0.3-0.3-0.2-0.6c0.2-0.3,0.5-0.5,0.9-0.5
		C106.6,185.1,106.7,185.2,106.9,185.4"/>
	<path id="path133" d="M109.5,185.2c0.2,0.3,0,0.6-0.2,0.9c-0.2,0.3-0.5,0.3-0.7,0.2c-0.2-0.2-0.5-0.3-0.6-0.7
		c0-0.3,0.3-0.5,0.6-0.7C109,184.8,109.2,185.2,109.5,185.2"/>
	<path id="path135" d="M-1.3,186.4c0,0.3-0.2,0.4-0.3,0.7c-0.2,0.1-0.4,0.2-0.6,0.2c-0.3-0.1-0.5-0.3-0.6-0.6
		c0.1-0.3,0.3-0.7,0.7-0.8C-1.8,185.8-1.4,186-1.3,186.4"/>
	<path id="path137" d="M79.8,186.4c0.1,0.2,0,0.4,0,0.5c-0.2,0.3-0.5,0.6-0.9,0.4c-0.2-0.2-0.5-0.5-0.4-0.8
		C78.8,186,79.5,185.8,79.8,186.4"/>
	<path id="path139" d="M4.9,186.9c-0.1,0.3-0.2,0.5-0.5,0.6c-0.3,0-0.5-0.3-0.7-0.4c0-0.3,0-0.7,0.3-0.9
		C4.5,186,4.9,186.4,4.9,186.9"/>
	<path id="path141" d="M1.2,187c0.1,0.4-0.2,0.7-0.4,0.9c-0.5,0.2-0.8-0.2-1-0.5c0-0.3,0.3-0.8,0.7-0.9C0.8,186.4,1,186.8,1.2,187"
		/>
	<path id="path143" d="M82.3,186.9c0.1,0.4,0,0.8-0.4,0.9c-0.5,0.2-0.8-0.2-1-0.5c0.2-0.3,0.2-0.7,0.7-0.8
		C81.9,186.5,82.2,186.7,82.3,186.9"/>
	<path id="path145" d="M3,187.1c0.1,0.3-0.1,0.4-0.2,0.6c-0.2,0-0.3,0.2-0.5,0.2c-0.2-0.2-0.5-0.3-0.5-0.5c0-0.4,0.2-0.6,0.5-0.7
		C2.7,186.5,2.9,186.8,3,187.1"/>
	<path id="path147" d="M104.8,187.4c-0.1,0.3-0.3,0.5-0.7,0.6c-0.3,0.1-0.5-0.2-0.7-0.3c-0.2-0.2-0.1-0.5,0-0.7
		C103.8,186.3,104.8,186.7,104.8,187.4"/>
	<path id="path149" d="M107.7,187.6c-0.1,0.4-0.5,0.6-0.9,0.7c-0.3-0.2-0.7-0.4-0.5-0.9c0.2-0.2,0.2-0.3,0.5-0.3
		C107.3,186.8,107.6,187.2,107.7,187.6"/>
	<path id="path151" d="M89.4,187.8c0.2,0.5-0.3,0.7-0.6,0.9c-0.3,0-0.5-0.2-0.7-0.3c-0.1-0.4,0.1-0.8,0.5-1
		C89,187.4,89.2,187.6,89.4,187.8"/>
	<path id="path153" d="M78.8,188.3c0.2,0.1,0.1,0.3,0.1,0.5c-0.2,0.2-0.5,0.5-0.9,0.3c-0.3-0.2-0.5-0.4-0.4-0.7
		C77.8,187.9,78.7,187.9,78.8,188.3"/>
	<path id="path155" d="M81,188.6c0,0.3,0,0.5-0.3,0.6c-0.3,0.3-0.6,0-0.8-0.1c-0.1-0.2-0.2-0.4,0-0.6c0.1-0.2,0.3-0.3,0.5-0.3
		C80.6,188.3,80.9,188.3,81,188.6"/>
	<path id="path157" d="M15.7,188.6c0.2,0.2,0,0.5-0.1,0.7c-0.2,0.2-0.6,0.4-1,0.2s-0.3-0.7-0.3-1c0.2-0.1,0.2-0.3,0.5-0.3
		C15.2,188.3,15.4,188.4,15.7,188.6"/>
	<path id="path159" d="M93.6,188.8c0.1,0.4-0.3,0.5-0.6,0.6c-0.5,0.2-0.7-0.2-0.9-0.5c0-0.2,0.2-0.4,0.3-0.6
		C92.9,188.1,93.3,188.4,93.6,188.8"/>
	<path id="path161" d="M91.5,188.8c0.2,0.4-0.3,0.6-0.4,0.8c-0.3,0.1-0.6,0.1-0.8-0.2c-0.2-0.1-0.2-0.3-0.2-0.6
		c0.2-0.2,0.3-0.4,0.6-0.5C91,188.3,91.3,188.5,91.5,188.8"/>
	<path id="path163" d="M108.8,189.2c0.1,0.5-0.6,0.3-0.9,0.4c-1.6,1-3.7,0.2-5.2-0.3c0.1-0.5,0.7-0.3,1-0.5c1.7-1,3.3,0.2,5,0.3
		L108.8,189.2z"/>
	<path id="path165" d="M3.4,188.8l-0.2,0.3c-1.4,0.9-3.3,1.4-5,0.9l-0.2-0.2c1.4-1,3.3-1.3,5.2-1H3.4z"/>
	<path id="path167" d="M97.5,189c0,0.3-0.2,0.6-0.4,0.7c-0.4,0.1-0.9,0-1-0.4c-0.1-0.3,0.2-0.6,0.5-0.7
		C96.9,188.6,97.3,188.6,97.5,189"/>
	<path id="path169" d="M10.3,189.2c-0.2,0.3-0.1,0.6-0.5,0.8s-0.8-0.2-1-0.5c-0.1-0.4,0.2-0.5,0.4-0.7
		C9.8,188.5,10.1,188.8,10.3,189.2"/>
	<path id="path171" d="M7.6,189.4c0.1,0.3-0.1,0.4-0.2,0.6c-0.2,0.2-0.5,0.2-0.8,0.1c-0.3-0.2-0.5-0.5-0.4-0.9
		c0.2-0.2,0.3-0.3,0.6-0.4C7.2,188.8,7.5,189,7.6,189.4"/>
	<path id="path173" d="M100.2,190.3c0,0.4-0.3,0.6-0.6,0.7c-0.3,0-0.6-0.2-0.7-0.4c-0.1-0.2-0.1-0.5,0.2-0.7
		c0.1-0.1,0.3-0.1,0.5-0.2C99.8,189.7,100.1,190,100.2,190.3"/>
	<path id="path175" d="M4.8,189.8c0.1,0.3-0.2,0.4-0.2,0.7c-0.1,0.7-0.5,1.1-0.8,1.7c-0.7,0.9-1.8,0.9-2.8,1.2L0.7,193
		c1.1-1.4,2.3-2.6,3.9-3.3C4.6,189.7,4.8,189.8,4.8,189.8z"/>
	<path id="path177" d="M98.3,190.7c0.1,0.5-0.3,0.5-0.6,0.7c-0.3,0-0.6-0.2-0.8-0.5c-0.1-0.4,0.3-0.6,0.5-0.8
		C97.8,190.1,98.1,190.4,98.3,190.7"/>
	<path id="path179" d="M9.2,190.7c0,0.1,0,0.2,0.1,0.2c0,0.4-0.3,0.5-0.6,0.7c-0.3,0-0.6-0.1-0.8-0.4c-0.2-0.4,0-0.8,0.4-0.9
		C8.6,190.3,9.1,190.3,9.2,190.7"/>
	<path id="path181" d="M105.3,191.9c0.4,0,0.5-0.5,0.9-0.6c0.4-0.1,0.7,0.2,0.9,0.4c0.2,0.5-0.2,0.7-0.5,0.9s-0.8-0.2-0.8,0.3
		c0.3,0.2,0.5,0.5,0.5,0.8c-0.1,0.2-0.3,0.1-0.5,0c-1.1-0.5-2.3-1.2-2.8-2.4c-0.2-0.4-0.9-0.6-0.5-0.9
		C103.8,190.3,104.7,191.2,105.3,191.9"/>
	<path id="path183" d="M109,190.7c0.2,0.2,0.1,0.5,0,0.7c-0.2,0.4-0.8,0.2-1.1,0.2c-0.2-0.2-0.4-0.4-0.3-0.7
		c0.2-0.2,0.3-0.4,0.6-0.5C108.5,190.3,108.8,190.5,109,190.7"/>
	<path id="path185" d="M95.1,192.8c0.3,0.4,0.7,1.1,0.8,1.6c-0.1,0.1-0.3,0.1-0.3,0.1c-1.3-0.7-3-1.6-3.5-3.1
		c-0.1-0.2-0.4-0.3-0.4-0.6c1-0.2,2,0.5,2.7,1.1C94.6,192.1,94.9,192.3,95.1,192.8"/>
	<path id="path187" d="M7,191.3c0.2,0.3-0.2,0.6-0.3,0.8c-0.4,0.1-0.7-0.1-0.9-0.3c-0.3-0.4,0.2-0.8,0.5-0.9
		C6.6,190.8,6.8,191.1,7,191.3"/>
	<path id="path189" d="M99.9,192.2c0,0.2-0.3,0.4-0.4,0.5c-0.3,0-0.6,0.2-0.9-0.1c-0.1-0.2-0.3-0.5,0-0.7
		C99,191.4,99.6,191.8,99.9,192.2"/>
	<path id="path191" d="M109.5,192.7c0.1,0.5-0.2,0.8-0.5,1c-0.4,0.1-0.7-0.2-0.9-0.3c-0.2-0.2,0-0.5,0-0.7c0.3-0.2,0.6-0.4,1-0.3
		C109.2,192.4,109.3,192.5,109.5,192.7"/>
	<path id="path193" d="M82.8,198.1c0,0.5-0.8,0.4-1.2,0.7c-1.2,0.6-2.6,0.6-4,0.6v-0.3C79,197.9,81,197.5,82.8,198.1"/>
	<path id="path195" d="M26.6,199.7c0,0.4-0.2,0.5-0.6,0.7c-0.3,0-0.5-0.2-0.7-0.4c-0.2-0.5,0.2-0.7,0.5-0.9
		C26.2,199.2,26.5,199.5,26.6,199.7"/>
	<path id="path197" d="M82.2,200.2c-0.1,0.4-0.2,0.7-0.6,0.9c-0.3,0.1-0.6-0.1-0.8-0.3c-0.2-0.2-0.1-0.4-0.1-0.6
		C80.9,199.5,81.9,199.5,82.2,200.2"/>
	<path id="path199" d="M89.8,200.3c-1,0.6-2,1.4-3.3,1.4h-2.1l-0.2-0.2c1.3-1.6,3.6-1.6,5.6-1.4V200.3z"/>
	<path id="path201" d="M16.1,201.2c0,0.3-0.2,0.6-0.5,0.7c-0.4,0.1-0.7-0.1-0.8-0.3c-0.2-0.3,0-0.7,0.3-0.9
		C15.5,200.5,15.9,200.9,16.1,201.2"/>
	<path id="path203" d="M18,201.6c0.1,0.2-0.1,0.3-0.2,0.5c-0.2,0.1-0.5,0.2-0.7,0c-0.3-0.2-0.3-0.4-0.2-0.7c0.1-0.2,0.3-0.2,0.5-0.4
		C17.6,201.2,17.9,201.4,18,201.6"/>
	<path id="path205" d="M3.3,205.5c-0.4,0.5-1-0.1-1.4-0.3c-1.3-0.8-1.3-2.3-2.7-3.2c0.2-0.5,0.5,0,0.8,0c0.2,0.2,0.5,0.3,0.8,0.4
		C2.1,203.1,2.4,204.4,3.3,205.5"/>
	<path id="path207" d="M115.5,190.5c-0.6-1.1-1.7-1.6-2.9-1.6c-1,0.1-1.7,0.7-2.2,1.6c-0.2,0.9,0.1,1.6,0.7,2.1
		c0.3,0.1,0.6,0.1,0.8-0.2c0.2-0.5-0.3-0.5-0.4-0.9c-0.2-0.5,0-1,0.4-1.4c0.4-0.4,1-0.2,1.5-0.2c0.5,0.3,0.9,0.6,1.2,1.1
		c0.2,0.7,0.2,1.4,0,2.1c-0.4,1-1.4,1.7-2.4,1.9c-3.2,0.5-38.3,0.3-38.3,0.3c-4.1,0.4-8.8-0.8-12.4,1.4c-1.6,0.8-2.4,2.6-2.8,4.1
		c-1,0.9-2.2,2-3,3.1l-0.1-0.1c0.2-0.9,0.6-1.7,0.8-2.7c0.6-0.8,0.6-1.8,1-2.7c1.5-2.4,2.8-4.8,5.1-6.4c1-1.3,2.7-1,4.1-1
		c1.6,0.7,3.4,1,5.4,0.8c0.1-0.1,0.1-0.2,0.1-0.3c-0.5-0.5-1.4-0.7-2-1.2c-1.5-0.7-3,0.2-4.6,0.1c-0.1-0.1-0.2-0.1-0.1-0.2
		c1.5-1.1,3.1-1.9,4.8-2.6c1.3-0.7,2.8-1.1,4.2-1.7c0.6,0,1.1-0.5,1.7-0.2l2-0.5c0.1,0,0.2,0.2,0.3,0.1c1.7-0.6,3.9,0,5.9-0.1
		l0.3,0.2l1.8,0.5c0.7,0.1,1,0.9,1.7,0.9c0.4-0.5-0.4-0.8-0.6-1.1c0.8-0.2,1.8,0,2.6,0.4l-0.4,0.4c-0.2,0.4,0.1,0.7,0.5,0.9
		c0.3,0.1,0.5-0.1,0.7-0.2c0.5-0.3,0-0.7,0.1-1c2.9,0.5,5.6,1.2,8.2,2.3c0.7,0.2,1.4,0.8,2.2,0.7c-0.8-0.7-1.9-1.1-2.9-1.6
		c-0.7-0.4-1.6-0.4-2.1-1c0.1-0.2,0.4-0.1,0.5-0.3c1.3-0.2,2.4-1.1,3.4-2.2c0.1-0.2,0.5-0.2,0.5-0.5c-0.3-0.4-0.9,0.1-1.4,0.1
		c-1.6,0.3-2.3,2.2-3.9,2.6c-2-0.5-4-0.9-5.9-1.4c-1-0.2-2-0.2-2.9-0.6l-2.2-0.2h-3.9c0-0.1-0.2-0.1-0.1-0.2c1.4-0.3,2.6-1.2,4-1.5
		l10.3-4.7c1.1-1,2-2.1,2.9-3.2c0-0.3-0.2-0.6-0.4-0.7c-0.3-0.1-0.6-0.1-0.8,0.2c-0.5,0.3,0,0.8,0,1.2c-0.5,0.6-1.2,1.2-1.8,1.5
		c-0.2,0-10.6,4.8-10.6,4.8c-1.5,0.7-3.1,1.4-4.7,1.7l-2.2,0.3c-0.2,0.5-0.5,0.7-1,0.9c-0.6,0.1-1.1,0.5-1.8,0.5
		c-5,1.9-10.2,4-14.2,8c0.2-0.5,0.3-1,0.4-1.6c-0.1-0.6,0-1.2-0.4-1.7c-0.1-0.2-0.4-0.8-0.3-1.1l-0.7,0.6c-0.3,0.9-0.7,2.4-0.3,3.3
		c0.1,0.7,0.7,1.5,0.2,2.1c-1.8,2.2-2.9,5-4.1,7.5c-0.5-0.1-0.7-0.5-0.9-0.9c1.3-1.7,2.3-3.5,2.7-5.7c0.3-0.2,0.1-0.7,0.3-0.9
		c-0.1-0.6,0.3-1.2,0-1.7c0.2-0.8-1.1-1.6-0.2-2.2l-0.7,0.3c-1.7,2.2,0.9,5.4-1,7.5v0.2c-0.5,0.7-0.8,1.4-1.5,1.9
		c-0.9-0.4-1.3-1.4-1.8-2.2c-0.8-0.8-0.8-2.5-0.3-3.6c0.3-1.1-0.2-2.1-0.3-3.1l-0.6-0.3c-0.9,1.2-1.3,3.1-0.5,4.5
		c0.4,0.7,0.4,1.7,1,2.3c0.3,1.1,1,1.9,1.7,2.9c0.2,0.4-0.2,0.5-0.4,0.7c-0.4-0.3-0.3-0.9-0.7-1.2c-1.3-2.7-2.9-4.9-4.9-7.1
		c-0.1-0.4-0.4-0.7-0.2-1c0.7-0.7,0.9-2.1,0.5-2.9c-0.1-0.2-0.3-0.4-0.3-0.6l-0.6-0.5c0.1,1.4-0.8,2.6-0.4,4v0.1
		c-4-3-8.4-5.7-12.8-7.7l-0.4,1c1.1,0.3,4.1,2.1,4.1,2.1c1.3,0.5,2.6,1.3,3.9,2.1c5.2,2.9,8.7,7.7,11.1,13.1c0,0.4,0.4,0.9,0.2,1.3
		c-0.8-1.2-2-1.9-2.9-2.9c-0.3-1.8-1.3-3.6-2.9-4.3c-0.6-0.9-1.8-0.9-2.8-1.2l-14-0.1C17.7,195.5,7.3,196-4,195.8
		c-1.6-0.2-3.5-0.7-4-2.4c-0.3-0.6-0.3-1.6,0-2.1c0.4-0.7,1.2-1,2-1c0.6,0.1,1,0.7,1.3,1.1c0,0.5-0.4,1-0.6,1.4
		c0,0.2,0.2,0.5,0.5,0.3c0.5-0.2,0.9-0.7,1-1.2c0-0.3,0.2-0.7-0.1-0.9c-0.2-0.8-1.1-1.4-1.8-1.6c-1-0.1-2,0.2-2.6,0.9
		c-1,0.7-1,2.1-0.7,3.2c0.6,1.7,2.4,2.9,4.2,3.1l37.5,0.2c3.7,0.2,7.8-0.4,11.5,0.3c1.3,0.4,2.8,1.4,3.1,2.9c0,0.1-0.2,0-0.3,0
		c-3-2-7-2.7-10.9-2.2c-1.5-0.1-2.9,0.5-4.3,0.9c-0.7,0.2-1.4-0.2-1.9-0.6c-1.4-1.2-3.8-1.2-5.6-0.7v0.3c1.9-0.2,3,1.5,4.7,1.7
		c0.4,0.1,0.7-0.3,1,0c-1.8,0.9-3.5,1.9-5.4,2.4c-0.6-0.1-0.9-0.7-1.3-1c-0.7-0.8-2.1-0.5-3.1-0.5c-0.3,0.1-0.7-0.2-0.9,0
		c0.3,0.6,1,1,1.7,1.3c1,0.4,2.1,0,3,0.5c-0.2,0.3-0.5,0.3-0.8,0.5c-1.8,0.7-3.3,2.3-5.3,2.2c-2.1,0.2-4.3-0.4-5.7-1.9
		c-0.6-1.5-2.2-2.3-3.9-2.2c-0.1,0.1-0.3,0.1-0.2,0.3c0.8,0.5,1.5,1.5,2.3,2.1c0.5,0.7,1.6,0,2.1,0.7c0.7,0.5,1.7,0.9,2.5,1.1
		c0.6,0.3,1.3,0.4,2,0.5l-0.3,0.1c-3.5,1.2-7.5,1.3-11.5,1.1c-1.2,0-2.3-0.4-3.4-0.3c0.2,0.2,0.6,0.4,0.9,0.5
		c-0.3,0.2-0.7,0.3-1,0.3c-0.5,0.1-1,0.2-1.5,0.4c-0.6,0-1.2,0.2-1.7,0.4c-0.7,0.7-1.4,1.4-2.2,1.8c0,0.2,0,0.4,0.2,0.4
		c0.7-0.3,1.7-0.1,2.4-0.4c1.3-0.1,2-1.5,3-2.1c1.1-0.9,2.6-0.7,3.9-0.5c0.8,0.2-0.1,0.5,0.2,1c0.3,0.3,0.6,0.6,1,0.5
		c0.1-0.1,0.2-0.2,0.3-0.2c0.2-0.3,0.2-0.7,0-1c0.5-0.4,1.3,0,1.8-0.2c1.5,0,2.9-0.3,4.4-0.4c0.2,0,0.5-0.3,0.7,0
		c-0.1,0.3-0.5,0.3-0.3,0.8c0.1,0.3,0.5,0.5,0.8,0.6c0.4-0.2,0.7-0.4,0.6-0.9c-0.1-0.3-0.4-0.3-0.6-0.4c0.8-0.4,1.7-0.5,2.5-0.9
		c0.6-0.1,1.1-0.3,1.6-0.5c0.5,0,0.9-0.5,1.4-0.3c-0.2,0.7-0.5,1.3-0.8,1.9c-0.6,2.1-1.1,4.8,0,6.7c0.1,0,0.2,0,0.2-0.1
		c-0.8-2.1-0.3-4.4,0.3-6.4c0.5-3.3,3.9-4.3,6.4-5.5l0.1,0.2c-0.7,1.7-1.6,3.3-1.5,5.4c0.1,0.3-0.2,0.7,0,0.9
		c0.7-0.3,1.1-1.1,1.4-1.8c0.3-1.7-0.7-3.9,1-5.2c3.2-1.2,6.1-2.9,9.8-2.9c0.1,0.1,0.4-0.1,0.4,0.2c-0.8,0.9-1.9,1.7-2.2,2.7
		c-1.2,1.7-1.2,4.6-0.7,6.7c0.3,1.2-0.7,1.9-1.2,2.8c-0.2,0.3-0.3,0.9-0.5,1.3l0.8,0.1c0.7-0.7,1.3-1.6,1.3-2.6
		c0.1,0.4,0.4,0.7,0.7,0.8c0.3-0.4-0.2-0.7-0.3-1.2c0.6-0.3,0.9,0.4,1.4,0.6c0.8,0.2,1.5,0.5,2.3,0.5l0.3-0.3
		c-0.8-1.3-2.5-1.6-4-1.6c-0.8-1.3-0.8-2.9-0.7-4.4c0.2-0.8,0.3-1.7,0.8-2.4c0.2-0.5,0.7-1,1.1-1.5c0.7-0.7,1.6-1.1,2.4-1.3h0.1v0.1
		c-1,0.8-1.2,1.9-1.8,2.9c-0.7,1-1,2.3-0.3,3.4c0.2,0.5,0.1,1.3,0.7,1.6c0.5-0.7,0.5-1.6,0.8-2.4c-0.1-1.3-0.9-2.5-0.2-3.7
		c0.4-1,1.2-1.4,2.1-1.7c2.1-0.2,4,0.9,5.8,1.7c0.4,0.3,1,0.5,1.1,1c0,1-0.6,2.1-1.4,2.6c-1,0.6-2.5,0.7-3.5,0
		c-0.6-0.6-0.8-1.6-0.6-2.4c0.4-0.5,1-0.9,1.7-0.6c0.4,0.2,0.7,0.6,1.2,0.3c0.2-0.1,0.3-0.4,0.2-0.6c-0.4-0.2-0.6-0.8-1.2-0.9
		c-0.7-0.1-1.6-0.1-2.1,0.4c-0.8,0.7-1.1,1.7-0.9,2.7c0.3,1.2,1.2,2.1,2.4,2.5c1.8,0.4,3.6-0.1,4.7-1.6c0.5-0.5,0.6-1,0.8-1.7
		c1.8,1.1,3.2,3.1,4,5.1c0,0.7,0.2,1.4,0,1.9l1.3,0.1c-0.1-0.3,0-0.7,0.1-0.9c0.5-2.6,2.1-4.7,4-6.4c0.7-0.4,0.5,0.5,0.7,0.8
		c0.6,1.5,1.9,2.5,3.3,2.9c1.6,0.3,3.2-0.1,4.2-1.4c0.5-0.9,1.1-2.3,0.3-3.3c-0.5-0.7-1.3-1-2.1-1c-1,0-1.6,0.7-2.1,1.4
		c0,0.3,0,0.7,0.2,0.8c0.2,0,0.5,0,0.6-0.2c0.1-0.6,0.6-0.9,1-1.2c0.4-0.2,0.9,0,1.2,0.2c0.4,0.3,0.5,0.9,0.5,1.5
		c-0.1,0.7-0.6,1.5-1.3,1.8c-1.1,0.6-2.7,0.3-3.7-0.3c-0.5-0.5-0.7-1.1-1.1-1.7c-0.1-0.6-0.3-1.2,0-1.8c1.7-1,3.5-1.7,5.5-1.9
		c0.8,0.2,1.5,0.7,2,1.3c1.8,1.8-0.4,4.4,0.8,6.4c0.5-0.1,0.5-0.7,0.7-1.1c0.6-1.4-0.2-2.9-0.5-4.3c-0.5-0.9-0.7-1.6-1.5-2.3
		c0.2-0.1,0.3-0.1,0.5-0.1c0.8,0.5,1.7,1.2,2.3,2c1.1,1.8,1.7,4,1.5,6.4c-0.3,1.2-1.5,1.7-2.5,2.1c-0.4,0.3-0.8,0.8-1,1.2
		c0.5,0.3,1.1,0,1.6-0.2c0.7-0.3,1.2-1.2,1.7-1.6c0.1,0,0,0.2,0.1,0.2c0,0.4-0.2,1,0.2,1.1c0.2-0.5,0.2-1.3,0.3-2
		c0.5,0.5,0.6,1.2,0.7,1.9c0.3,0.7,0.9,1.6,1.8,1.7c0.2-0.3,0-0.7-0.1-1c-0.1-1-0.9-1.5-1.5-2.2c-1.3-1.9-0.7-4.8-1.8-6.9
		c-0.4-1.1-1.2-1.9-2.1-2.9l0.2-0.2c1.9,0,3.5,0.6,5.2,0.9c2.1,1,5.2,0.8,6.2,3.6c0.4,1.6,1.1,3,2.2,4.2l0.1-0.1
		c0.2-0.4,0.2-1,0-1.4c-0.2-1.9-1.9-2.4-2.8-4l0.1-0.2c0.9,0.3,1.9,0.5,2.8,0.9c3.1,0.9,5.2,3.9,5.6,7c0,2.5-0.5,4.5-1.4,6.6
		c-0.1,0.3-0.7,0.7-0.3,0.9c0.4-0.3,0.5-0.8,0.7-1.2c1.3-2.1,1.9-5.1,1.3-7.8c0-0.5-0.6-0.9-0.3-1.4c0.2,0.2,0.4,0.3,0.7,0.3
		c0.2-0.2,0.6-0.2,0.7-0.4c0-0.2,0.2-0.5,0-0.7c0.2,0.6-0.3,0.6-0.7,0.7c-0.2,0.2-0.4,0.5-0.5,0.9c-0.4-0.7-0.8-1.5-1.4-2.1l0.1-0.1
		c1.7,0.6,3.3,1.4,5.1,1.9c0.4,0.2,0.8,0.4,1.3,0.4c1.5,0.6,3.2,0.8,4.7,1.2c1.2-0.1,2.1,0.4,3.3,0.2v-0.1c-0.4-0.5-1.3,0-1.8-0.4
		c-2.7-0.3-5.2-1-7.6-1.9c0-0.1,0.2-0.1,0.3-0.1c0.4-0.2,0.7-0.5,0.6-1c-0.2-0.3-0.5-0.4-0.9-0.4c-0.2,0.1-0.5,0.4-0.6,0.7
		c0,0.3,0.3,0.7,0.6,0.7c-0.1,0.1-0.2,0-0.3,0c-1.2-0.5-2.4-1-3.5-1.6c-0.4-0.1-0.8-0.4-1.2-0.5c-0.9-0.4-1.8-0.9-2.7-1.2
		c-2.5-1.3-5.2-2-7.8-2.9c-0.6-0.2-1.1-0.3-1.7-0.5c-1-0.3-1.9-0.5-2.9-0.8c-3.3-0.8-7.7-0.9-10.5,0.9c-0.5-0.2-0.7,0.6-1,0.1
		c0.8-2.1,3.2-2.8,5.3-2.9c15.4-0.2,29.9-0.3,45.1-0.5c1.8,0,3.5-0.6,4.4-2.2C115.9,193.1,116,191.5,115.5,190.5 M54.3,204.8
		c-0.2,0.5-0.5,0.9-0.4,1.4h-0.2c0.1-0.6-0.5-0.9-0.3-1.6c-0.3-0.5-0.3-1-0.6-1.6c-0.3-0.6,0.3-0.9,0.6-1.3c0.5,0.2,0.7,0.7,1.1,1.2
		C54.7,203.7,54.2,204.2,54.3,204.8"/>
	<path id="path209" d="M96.1,202.4c0,0.1,0.2,0.2,0.2,0.3c-1.3,1.2-3.2,1.6-5.2,1.6c-0.2,0-0.3,0.2-0.5,0.1
		c-0.1-0.1-0.2-0.2-0.1-0.3C91.9,202.7,94,201.9,96.1,202.4"/>
	<path id="path211" d="M89.9,203c0.2,0.5-0.2,0.9-0.6,1c-0.4,0-0.7-0.3-0.8-0.6c-0.1-0.3,0.2-0.5,0.3-0.7
		C89,202.4,89.7,202.4,89.9,203"/>
	<path id="path213" d="M16.7,203.1c0.1,0.3,0,0.6-0.2,0.8c-0.2,0.2-0.5,0.2-0.7,0.2c-0.3,0-0.4-0.3-0.5-0.6c0-0.3,0.2-0.5,0.5-0.7
		C16.1,202.8,16.4,202.7,16.7,203.1"/>
	<path id="path215" d="M9.8,205.6v0.3c-0.9,0.2-1.8,0-2.5-0.6c-0.5-0.8-1.2-1.6-2-1.9c0-0.1-0.2-0.3,0-0.3
		C7.1,203,8.3,204.5,9.8,205.6"/>
	<path id="path217" d="M101.9,203c-0.9,1.3-1.7,2.9-3.2,3.5c-0.3,0-0.5,0.4-0.7,0.1c0.6-1.5,1.9-3.1,3.4-3.7
		C101.5,203,101.8,202.9,101.9,203"/>
	<path id="path219" d="M18.9,203.5c0,0.4-0.3,0.5-0.5,0.7c-0.3,0-0.5-0.2-0.7-0.4c-0.2-0.4,0.2-0.5,0.4-0.7
		C18.4,203,18.7,203.2,18.9,203.5"/>
	<path id="path221" d="M106.8,203.7c-0.3,0.5-0.2,1.2-0.5,1.8c-0.8,0.9-1.4,1.9-2.7,2.1c-0.2-0.4,0.3-0.8,0.5-1.1
		c0.5-1.2,1.3-2.5,2.5-3L106.8,203.7z"/>
	<path id="path223" d="M-2.2,204.1c0.1,0.3,0.2,0.5,0,0.9c-0.2,0.1-0.6,0.2-0.9,0.1c-0.3-0.2-0.5-0.6-0.3-0.9
		C-3.1,203.8-2.4,203.6-2.2,204.1"/>
	<path id="path225" d="M-4.4,204.5c0.1,0.2,0.2,0.4,0.1,0.6c-0.1,0.2-0.3,0.4-0.5,0.5c-0.4,0.1-0.7-0.2-0.9-0.5
		c0-0.3,0.1-0.7,0.4-0.8C-4.9,204.1-4.6,204.3-4.4,204.5"/>
	<path id="path227" d="M0.2,204.8c0.1,0.3,0.2,0.9-0.3,0.9c-0.5,0.2-0.8-0.2-1.2-0.5c0-0.3,0.2-0.6,0.5-0.8
		C-0.4,204.4-0.1,204.5,0.2,204.8"/>
	<path id="path229" d="M6.5,205.3c0,0.3,0,0.7-0.3,0.7c-0.2,0.2-0.5,0.1-0.7,0.1c-0.1-0.2-0.5-0.4-0.3-0.7c0.2-0.2,0.3-0.3,0.5-0.4
		C6,205.1,6.3,205,6.5,205.3"/>
	<path id="path231" d="M110.5,205.5c-0.1,0.3-0.3,0.6-0.6,0.6c-0.3,0-0.7-0.1-0.9-0.4c-0.2-0.4,0.2-0.7,0.5-0.8
		C109.9,205,110.4,205.1,110.5,205.5"/>
	<path id="path233" d="M103.4,205.7c0,0.3-0.3,0.5-0.5,0.7c-0.5,0.2-1-0.2-1.2-0.6c0.1-0.3,0.3-0.6,0.7-0.7
		C102.9,205.1,103.2,205.4,103.4,205.7"/>
	<path id="path235" d="M108.2,205.7c0,0.3-0.2,0.5-0.3,0.7c-0.3,0.1-0.7,0.1-0.9-0.2c-0.3-0.3-0.1-0.6,0.2-0.8
		C107.4,205.2,108.1,205.2,108.2,205.7"/>
	<path id="path237" d="M-3.2,206.3c0.1,0.4-0.1,0.8-0.5,1c-0.3,0-0.7-0.2-0.8-0.5c0-0.3,0.1-0.7,0.4-0.8
		C-3.7,205.8-3.4,206.1-3.2,206.3"/>
	<path id="path239" d="M101.5,206.8c0.1,0.4-0.1,0.8-0.5,1c-0.3,0.1-0.5-0.1-0.7-0.3c-0.2-0.2-0.3-0.6,0-0.8
		C100.5,206.1,101.3,206.3,101.5,206.8"/>
	<path id="path241" d="M17.5,207.2c0.2,0.4-0.3,0.5-0.4,0.7c-0.2,0.1-0.5,0.1-0.6,0c-0.2-0.2-0.4-0.5-0.3-0.8
		c0.2-0.2,0.3-0.3,0.5-0.4C17.2,206.6,17.3,206.9,17.5,207.2"/>
	<path id="path243" d="M109.8,207.4c0.1,0.3-0.2,0.4-0.2,0.6c-0.2,0.2-0.6,0.2-0.9,0.2c-0.3-0.2-0.3-0.5-0.3-0.9
		c0.2-0.2,0.3-0.3,0.5-0.4C109.2,206.9,109.7,207.1,109.8,207.4"/>
	<path id="path245" d="M107.4,207.6c0.2,0.5-0.3,0.7-0.6,0.8c-0.2,0-0.4-0.1-0.4,0.2c1,0.5,1.6,1.3,2.4,2.1v0.3
		c-1.4,0-2.8-0.4-3.8-1.5c-0.3-0.2-0.7-0.2-1-0.5c0.5-0.5,1.4-0.3,2.1-0.3c0.5-0.5-0.6-0.9,0.1-1.4c0.2,0,0.4-0.3,0.7-0.2
		C107.1,207.1,107.2,207.3,107.4,207.6"/>
	<path id="path247" d="M91.6,207.6c0.1,0.2-0.2,0.4-0.2,0.6c-0.2,0.2-0.6,0.3-0.8,0.2c-0.2-0.3-0.5-0.5-0.4-0.9
		C90.5,206.9,91.5,207,91.6,207.6"/>
	<path id="path249" d="M5.5,209c-0.1,0.4-0.3,0.6-0.7,0.6c-0.3,0-0.6-0.2-0.7-0.5c0-0.3,0.2-0.4,0.2-0.6
		C4.8,208.1,5.6,208.4,5.5,209"/>
	<path id="path251" d="M8.6,208.5c0,0.5-0.6,0.9-0.8,1.4c-0.6,1.3-1.6,2.4-3.1,2.6c-0.2-0.3,0.5-0.8,0.7-1.1c0.6-1.3,1.8-2,3-2.8
		L8.6,208.5L8.6,208.5z"/>
	<path id="path253" d="M90.7,209c0,0.4-0.3,0.7-0.7,0.9c-0.3,0.1-0.6-0.2-0.8-0.3c-0.3-0.3-0.1-0.6,0-0.9
		C89.7,208.2,90.4,208.6,90.7,209"/>
	<path id="path255" d="M93.1,209.3c0,0.4-0.3,0.7-0.7,0.9c-0.1-0.1-0.3,0-0.4-0.1c-0.3-0.2-0.5-0.4-0.5-0.7c0.2-0.2,0.3-0.5,0.5-0.5
		C92.4,208.8,93,208.8,93.1,209.3"/>
	<path id="path257" d="M14.6,209.2c0,0.4-0.3,0.7-0.6,0.8c-0.3,0-0.6-0.2-0.7-0.5s0.3-0.6,0.5-0.8C14.2,208.7,14.3,209,14.6,209.2"
		/>
	<path id="path259" d="M17.3,209.4c-0.1,0.4-0.3,0.6-0.7,0.7c-0.3-0.1-0.6-0.2-0.7-0.5c0-0.4,0.3-0.6,0.5-0.8
		C16.8,208.8,17.2,209,17.3,209.4"/>
	<path id="path261" d="M101.4,212.1c0.2,0.2,0.5,0.3,0.5,0.6c-0.6,0.3-1.1-0.4-1.7-0.5c-0.9-0.9-1.6-1.9-2-3.1
		c0.3-0.4,0.7,0.1,1,0.2C100.1,210,100.9,211,101.4,212.1"/>
	<path id="path263" d="M102.8,209.4c0.1,0.3,0.1,0.6-0.1,0.9c-0.2,0.4-0.7,0.3-1.1,0.2c-0.2-0.2-0.5-0.5-0.3-0.9
		c0.1-0.3,0.5-0.4,0.7-0.5C102.3,209,102.5,209.3,102.8,209.4"/>
	<path id="path265" d="M20.8,210.4c0,0.3,0.1,0.8-0.3,1c-0.3,0.1-0.8,0-0.9-0.5c-0.2-0.5,0.2-0.5,0.5-0.8
		C20.4,210,20.6,210.2,20.8,210.4"/>
	<path id="path267" d="M93,212.9c0.5,0.8,0.9,1.7,1,2.8c-0.1,0.3,0.2,0.5,0,0.7h-0.2c-1.7-1.2-2.1-3-2.8-4.7
		c-0.2-0.1-0.2-0.2-0.2-0.4c0.4-0.3,0.7,0.3,1,0.5L93,212.9z"/>
	<path id="path269" d="M25.8,211.6c-1.5,1.2-3.7,1.8-5.4,0.8c0-0.1,0-0.3,0.2-0.3c1.1-0.3,2.2-0.9,3.4-0.7L25.8,211.6z"/>
	<path id="path271" d="M17,211.8c-1.3,0.8-2.5,2.4-4.1,2.8c-0.3,0.1-0.5,0.5-0.9,0.3c0.7-2.1,3-3.2,5-3.4
		C17,211.5,17,211.8,17,211.8z"/>
	<path id="path273" d="M90.7,213.5c0.1,0.3,0,0.7-0.3,0.8c-0.2,0.2-0.6,0.2-0.7,0c-0.3-0.2-0.3-0.5-0.3-0.8c0.1-0.3,0.4-0.3,0.6-0.4
		C90.2,213.2,90.5,213.2,90.7,213.5"/>
	<path id="path275" d="M87.5,213.7c-0.2,0.5-0.9,0.9-1.4,1c-1.3,0.5-2.5-0.2-3.7-0.5c0-0.3,0.4-0.2,0.6-0.4c1.3-0.3,2.6-0.5,3.9-0.2
		C87.1,213.6,87.4,213.6,87.5,213.7"/>
	<path id="path277" d="M17,214.9c-0.1,0.2-0.2,0.5-0.5,0.6s-0.5,0-0.8-0.2c0-0.2-0.2-0.4,0-0.7c0.1-0.3,0.4-0.3,0.6-0.4
		C16.7,214.2,17,214.5,17,214.9"/>
	<path id="path279" d="M19.3,215.2c-0.1,0.2-0.2,0.6-0.5,0.7s-0.5-0.1-0.8-0.3c-0.1-0.2-0.2-0.5-0.1-0.8c0.1-0.2,0.3-0.2,0.5-0.3
		C18.8,214.5,19.2,214.9,19.3,215.2"/>
	<path id="path281" d="M90,215.6c0,0.3-0.1,0.5-0.3,0.7c-0.2,0.3-0.6,0.3-0.8,0.2c-0.3,0-0.3-0.3-0.5-0.5c-0.2-0.3,0.2-0.5,0.3-0.8
		C89.1,214.8,89.8,215,90,215.6"/>
	<path id="path283" d="M91.7,215.5c0,0.2,0.2,0.4,0.1,0.5c-0.2,0.2-0.4,0.7-0.8,0.5c-0.2,0.1-0.3-0.2-0.5-0.3c-0.2-0.4,0-1,0.5-1
		C91.2,215.1,91.5,215.4,91.7,215.5"/>
	<path id="path285" d="M17.9,216.6c0.1,0.4-0.1,0.8-0.4,1c-0.4,0.1-1,0.1-1.1-0.4c0-0.4,0-0.9,0.5-1.1
		C17.3,216.1,17.7,216.2,17.9,216.6"/>
	<path id="path287" d="M20.1,216.5c-0.1,1.1-0.3,2.4-1.4,3c-0.6,0.1-1.2,0.7-1.8,0.3v-0.2C17.7,218.5,19.2,217.6,20.1,216.5"/>
	<path id="path289" d="M83.9,217.4c0.2,0.2-0.1,0.4-0.2,0.6c-0.2,0.3-0.7,0.2-0.9,0c-0.3-0.1-0.3-0.5-0.2-0.8
		c0.1-0.2,0.3-0.3,0.5-0.4C83.4,216.8,83.7,217.1,83.9,217.4"/>
	<path id="path291" d="M24,219.2c0.5,0.9,0.2,2.1,0.5,3.1c-0.7,0.1-0.9-0.7-1.3-1c-0.8-1.2-0.7-2.7-1.1-4.1c0.1-0.1,0.2-0.1,0.3-0.1
		c0.6,0.4,1,1.1,1.5,1.6C23.7,218.9,24,218.9,24,219.2"/>
	<path id="path293" d="M85.9,217.7c0,0.3-0.3,0.4-0.5,0.6c-0.3,0-0.5-0.2-0.7-0.3c-0.1-0.4,0.2-0.5,0.4-0.7
		C85.4,217.1,85.7,217.3,85.9,217.7"/>
	<path id="path295" d="M90.4,221.1c0,0.1,0,0.3-0.2,0.3H90c-1.1-1-2.2-2.1-2.1-3.7h0.2C89.2,218.6,90.4,219.6,90.4,221.1"/>
	<path id="path297" d="M87.5,219.9c0,0.3-0.2,0.5-0.3,0.7c-0.4,0.1-1.1,0.1-1.2-0.5c0-0.4,0.4-0.6,0.6-0.8
		C87.1,219.2,87.4,219.6,87.5,219.9"/>
	<path id="path299" d="M85,220.7c-0.5,1.4-2,2.2-3,3.3c-0.2-0.1-0.1-0.4-0.1-0.6c0.4-1.5,1.5-2.9,3-3.5
		C85.5,220,84.9,220.4,85,220.7"/>
	<path id="path301" d="M87.9,221.9c0,0.4-0.3,0.5-0.5,0.7c-0.3,0-0.6-0.1-0.8-0.4c0-0.4,0.3-0.5,0.5-0.7
		C87.4,221.4,87.7,221.6,87.9,221.9"/>
	<path id="path303" d="M59.2,151.5c0.5,0,1,0.4,1,1c0,0.5-0.4,1-1,1H47.8c-0.5,0-1-0.4-1-1c0-0.5,0.4-1,1-1H59.2z M51.2,153.1
		c1.1,0,0.1-1.4-0.5-1.4h-1.1c-1.1,0-0.1,1.4,0.5,1.4H51.2z M55.8,153.1c1.1,0,0.1-1.4-0.5-1.4h-1.1c-1.1,0-0.1,1.4,0.5,1.4H55.8z
		 M59.3,151.8h-0.4c-1.1,0-0.2,1.4,0.4,1.4C60,153.1,60.1,151.8,59.3,151.8"/>
	<path id="path305" d="M58.2,164.6l2.2,0.8l2.1-0.8l-0.8,3.2l1.7-0.4l-0.6,1.9l0.6,1.9l-1.5-0.4l0.7,3.5l-2.1-0.8l-2.2,0.8l0.9-3.5
		l-1.7,0.5l0.5-1.9l-0.5-1.9l1.7,0.3C59.2,167.8,58.2,164.6,58.2,164.6z M61.5,170.4c0.5,0,0.5-0.7,0.5-1.3c0-1.3-1,0-1.6-1.2
		c-0.4,1.1-1.5,0.1-1.5,1.2c0,0.8,0,1.3,0.8,1.3C59.7,170.4,61.5,170.4,61.5,170.4z M59.3,169.2c0,0.5,0.7,0.2,1.2,0.2
		s1.2,0.3,1.2-0.2c0-0.7-0.7-0.5-1.2-0.5S59.3,168.5,59.3,169.2"/>
	<polygon id="polygon307" points="53.1,168.5 52.9,168.2 53.2,168.2 53.5,167.8 53.7,168.2 54.1,168.2 53.9,168.5 54.2,168.8 
		53.8,168.9 53.8,169.3 53.5,169 53.1,169.3 53.1,168.9 52.8,168.8 	"/>
	<polygon id="polygon309" points="51.4,170.7 51.2,170.4 51.6,170.4 51.8,170 52,170.4 52.4,170.4 52.2,170.7 52.5,171 52.1,171.1 
		52.1,171.5 51.8,171.2 51.4,171.5 51.4,171.1 51.1,171 	"/>
	<polygon id="polygon311" points="54.2,170.4 54.1,170.1 54.4,170.1 54.7,169.7 54.9,170.1 55.3,170.1 55.1,170.4 55.4,170.7 
		55,170.8 55,171.2 54.7,170.9 54.3,171.2 54.3,170.8 53.9,170.7 	"/>
	<polygon id="polygon313" points="54.6,172.4 54.5,172.2 54.7,172.2 54.8,172 55,172.2 55.2,172.2 55.1,172.4 55.2,172.6 55,172.6 
		55,172.8 54.8,172.7 54.7,172.8 54.7,172.6 54.4,172.6 	"/>
	<polygon id="polygon315" points="51.8,173.4 51.5,172.8 52.2,172.9 52.6,172.2 53,172.9 53.6,172.8 53.3,173.4 53.8,173.9 
		53.2,174 53.2,174.7 52.6,174.2 52,174.7 52,174 51.4,173.9 	"/>
	<polygon id="polygon317" points="56.4,143.6 59.3,145.6 55.8,146.2 56,149.8 53.3,147.4 50.7,149.8 50.9,146.2 47.4,145.6 
		50.3,143.6 48.6,140.4 52,141.4 53.3,138.1 54.7,141.4 58.1,140.4 	"/>
	<path id="path319" d="M40.9,212.9c-0.4,0.2-0.6,0.3-0.5,0.7l0.5,2c0.1,0.4,0.1,1-0.1,1.3c-0.3,0.4-0.9,0.7-1.4,0.8
		c-0.3,0.1-1.1,0.2-1.6,0c-0.4-0.2-0.6-0.3-0.8-1l-0.5-2.1c-0.2-0.5-0.4-0.5-0.8-0.4V214l2.6-0.6v0.2c-0.5,0.1-0.7,0.2-0.6,0.8
		l0.5,2.1c0.1,0.4,0.3,1.2,1.4,1c1.3-0.3,1.1-1.3,1-1.7l-0.5-2c-0.1-0.4-0.2-0.6-0.9-0.5v-0.2l1.7-0.4
		C40.9,212.7,40.9,212.9,40.9,212.9z"/>
	<path id="path321" d="M44.7,213.3c-0.2-0.4-0.9-1.1-1.8-0.9c-0.4,0.1-0.8,0.4-0.7,0.8c0.1,0.3,0.3,0.5,1,0.6l1.2,0.2
		c0.3,0,0.9,0.3,1.1,1c0.1,0.6-0.2,1.5-1.6,1.8c-0.7,0.2-1.1,0-1.4,0.1c-0.2,0-0.2,0.2-0.2,0.3l-0.2,0.1l-0.4-1.6l0.2-0.1
		c0.3,0.6,0.9,1.2,1.9,1c0.9-0.2,0.8-0.8,0.8-0.9c-0.1-0.4-0.5-0.5-1-0.6L43,215c-1.4-0.2-1.5-0.8-1.6-1.1c-0.1-0.4,0-1.3,1.4-1.6
		c0.6-0.1,1,0,1.2-0.1c0.2,0,0.2-0.1,0.2-0.3l0.2-0.1l0.3,1.4C44.7,213.2,44.7,213.3,44.7,213.3z"/>
	<path id="path323" d="M49.8,215.9l-2.8,0.2v-0.2c0.6-0.1,0.8-0.1,0.7-0.7l-0.3-3.5c-0.5,0.1-1.3,0.2-1.4,1.3h-0.2l-0.1-1.2l4.7-0.5
		l0.1,1.3h-0.2c-0.3-1-1.1-1-1.6-1l0.3,3.5c0.1,0.6,0.2,0.6,0.8,0.5V215.9L49.8,215.9z"/>
	<path id="path325" d="M56.4,215.9h-1.6l-1.6-2.1H53v1.3c0,0.5,0.2,0.5,0.7,0.6v0.2l-2.7-0.1v-0.2c0.5,0,0.7-0.1,0.7-0.6v-2.9
		c0-0.6-0.2-0.6-0.7-0.6v-0.2h2.5c0.5,0,2.2,0.1,2.2,1.2c0,0.8-0.8,1-1.3,1.1l1.5,1.9c0.1,0.1,0.2,0.1,0.3,0.1
		C56.2,215.6,56.4,215.9,56.4,215.9z M53,213.5c1,0,1.4-0.1,1.5-1c0-0.7-0.3-1-0.9-1c-0.4,0-0.4,0.1-0.5,0.3L53,213.5z"/>
	<path id="path327" d="M61.5,216.5l-2.5-0.3V216c0.5,0,0.6,0,0.7-0.2c0-0.2-0.2-0.7-0.3-0.9l-1.7-0.2c-0.3,0.4-0.4,0.7-0.4,0.8
		c0,0.2,0.3,0.3,0.6,0.4v0.2l-1.6-0.2v-0.2c0.4,0,0.6-0.2,0.9-0.7l2.2-3.4h0.2l1.3,3.7c0.3,0.7,0.4,1,0.7,1
		C61.6,216.3,61.5,216.5,61.5,216.5z M59.3,214.7l-0.6-1.7l-0.9,1.5L59.3,214.7z"/>
	<path id="path329" d="M66.1,217.5l-4.5-0.8v-0.2c0.4,0,0.7,0.1,0.7-0.3l0.6-3.1c0.1-0.4-0.2-0.5-0.6-0.6v-0.2l2.7,0.5v0.2
		c-0.5-0.1-0.8-0.1-0.9,0.5l-0.6,3.1c-0.1,0.3,0.1,0.4,0.6,0.5c1.2,0.2,1.7-0.2,2.2-0.9h0.2L66.1,217.5L66.1,217.5z"/>
	<path id="path331" d="M69,218.1l-2.7-0.6v-0.2c0.4,0.1,0.7,0.1,0.8-0.3l0.6-3.1c0.1-0.4-0.3-0.5-0.6-0.6v-0.2l2.7,0.6v0.2
		c-0.4-0.1-0.7-0.1-0.8,0.3l-0.6,3.1c-0.1,0.4,0.2,0.5,0.6,0.6V218.1z"/>
	<path id="path333" d="M74.5,218.8l-2.5-0.3v-0.2c0.5,0,0.6,0,0.7-0.2c0-0.2-0.2-0.7-0.3-0.9l-1.8-0.1c-0.3,0.4-0.4,0.7-0.4,0.8
		c0,0.2,0.3,0.3,0.6,0.3v0.2l-1.6-0.2V218c0.4,0,0.6-0.2,0.8-0.7l2.1-3.4h0.2l1.4,3.6c0.3,0.7,0.4,1,0.8,1L74.5,218.8L74.5,218.8z
		 M72.3,217l-0.6-1.6l-0.9,1.5L72.3,217z"/>
	<path id="path335" d="M54.4,165.6c0-1.6-0.9-0.1-1.4-1.4c-0.4,1.1-1.4,0.2-1.4,1.4c0,0.5,0.1,0.7,0.3,0.9v0.5
		c0,0.1,0.1,0.2,0.2,0.2h1.7c0.1,0,0.2-0.1,0.2-0.2v-0.5C54.3,166.3,54.4,166,54.4,165.6 M53.1,165.9c-0.5,0-1.1,0.3-1.1-0.2
		c0-0.8,0.5-0.6,1-0.6s1.2-0.2,1.2,0.6C54.1,166.3,53.5,165.9,53.1,165.9"/>
	<path id="path337" d="M68.2,185.1c0.4,0,0.7-0.3,0.7-0.6c0-0.4-0.3-0.6-0.7-0.6s-0.7,0.3-0.7,0.6S67.8,185.1,68.2,185.1"/>
	<path id="path339" d="M64.8,161.6c0,0-0.3,0.6-0.3,0.7c0,0.2,0.2,0.4,0.3,0.4s0.3-0.2,0.3-0.4S64.8,161.6,64.8,161.6"/>
	<path id="path341" d="M41.5,161.6c0,0-0.3,0.6-0.3,0.7c0,0.2,0.2,0.4,0.3,0.4c0.2,0,0.3-0.2,0.3-0.4
		C41.9,162.3,41.5,161.6,41.5,161.6"/>
	<path id="path343" d="M47.3,161.6c0,0-0.3,0.6-0.3,0.7c0,0.2,0.2,0.4,0.3,0.4s0.3-0.2,0.3-0.4C47.7,162.3,47.3,161.6,47.3,161.6"/>
	<path id="path345" d="M53.2,161.6c0,0-0.3,0.6-0.3,0.7c0,0.2,0.2,0.4,0.3,0.4c0.2,0,0.3-0.2,0.3-0.4L53.2,161.6"/>
	<path id="path347" d="M59,161.6c0,0-0.3,0.6-0.3,0.7c0,0.2,0.2,0.4,0.3,0.4s0.3-0.2,0.3-0.4S59,161.6,59,161.6"/>
	<path id="path349" d="M41.5,169.6c0,0,0.3,0.6,0.3,0.7c0,0.2-0.2,0.4-0.3,0.4c-0.2,0-0.3-0.2-0.3-0.4L41.5,169.6"/>
	<path id="path351" d="M41.5,177.3c0,0,0.3,0.6,0.3,0.7c0,0.2-0.2,0.4-0.3,0.4c-0.2,0-0.3-0.2-0.3-0.4L41.5,177.3"/>
	<path id="path353" d="M42.5,183.5c0,0,0.3,0.6,0.3,0.7c0,0.2-0.2,0.4-0.3,0.4c-0.2,0-0.3-0.2-0.3-0.4
		C42.1,184.2,42.5,183.5,42.5,183.5"/>
	<path id="path355" d="M47.4,186.8c0,0,0.3,0.6,0.3,0.7c0,0.2-0.2,0.4-0.3,0.4c-0.2,0-0.3-0.2-0.3-0.4
		C47,187.4,47.4,186.8,47.4,186.8"/>
	<path id="path357" d="M65.1,169.6c0,0-0.3,0.6-0.3,0.7c0,0.2,0.2,0.4,0.3,0.4c0.2,0,0.3-0.2,0.3-0.4L65.1,169.6"/>
	<path id="path359" d="M65.1,177.3c0,0-0.3,0.6-0.3,0.7c0,0.2,0.2,0.4,0.3,0.4c0.2,0,0.3-0.2,0.3-0.4L65.1,177.3"/>
	<path id="path361" d="M64.2,183.5c0,0-0.3,0.6-0.3,0.7c0,0.2,0.2,0.4,0.3,0.4c0.2,0,0.3-0.2,0.3-0.4L64.2,183.5"/>
	<path id="path363" d="M59.3,186.8c0,0-0.3,0.6-0.3,0.7c0,0.2,0.2,0.4,0.3,0.4s0.3-0.2,0.3-0.4C59.6,187.4,59.3,186.8,59.3,186.8"/>
	<path id="path365" d="M53.3,190.2c0,0-0.3,0.6-0.3,0.7c0,0.2,0.2,0.4,0.3,0.4c0.2,0,0.3-0.2,0.3-0.4
		C53.7,190.9,53.3,190.2,53.3,190.2"/>
	<path id="path367" d="M62.8,178.6c0.1,0.1,0.3,0.1,0.5,0.1l0.2-0.6c0,0-0.3-0.3-0.4-0.3c-0.6,0.1-1.3,0.2-1.6,0.8
		c0,0.4,0.3,0.8,0.6,1c0.2-0.1,0.3,0.1,0.4,0.3c0,0.2-0.1,0.3-0.3,0.3c-0.4-0.4-1.2,0.1-1.5-0.4c0.1-0.6,0.4-1.2,0-1.7
		c0-0.1,0.2-0.2,0.1-0.3c-0.2-0.5-0.7-0.1-1.1-0.1c-0.5-0.1-1,0.2-1.3,0.7c0,0.2,0.1,0.4,0.3,0.6c0.1,0,0.2,0,0.3,0.1l-0.4,0.2
		c0.1,0.1,0.1,0.3,0.1,0.4c-0.3,0.1-0.5-0.3-0.6-0.4c0-0.3,0-0.8-0.4-0.9c-0.1,0-0.3,0.1-0.3,0.1c-0.1,0.1-0.2,0.3-0.2,0.6
		s0.1,0.7,0.1,0.7s1.1,0.8,1.4,1.4c-0.3,0.7-0.3,1.6-1.1,2c-0.2,0.1-0.2,0.4-0.2,0.6l0.2,0.1c0.5-0.3,1.4-0.3,1.3-1.1
		c0.2-0.3,0.4-0.7,0.7-1c0.4-0.1,0.7,0.1,0.8,0.4c-0.1,0.6-0.5,0.9-1,1.1c-0.1,0.1,0,0.2,0,0.3c0.1,0.3,0.5,0.1,0.8,0.1
		c0.6-0.4,0.9-1.1,1.4-1.4c0.1,0.4-0.7,0.5-0.2,0.8c0.3-0.1,0.8,0,1-0.4c-0.3-0.6,0.9-0.9,0.2-1.5c0-0.6,0.6-0.8,0.5-1.4
		c-0.2-0.6-0.9-0.6-1.1-1.1C62.3,178.5,62.6,178.5,62.8,178.6"/>
	<path id="path369" d="M36.1,185.3c0.4,0,0.7-0.3,0.7-0.6c0-0.4-0.3-0.6-0.7-0.6s-0.7,0.3-0.7,0.6C35.4,185.1,35.7,185.3,36.1,185.3
		"/>
	<path id="path371" d="M-1.6,207.4c0.4,0,0.7-0.3,0.7-0.7s-0.3-0.7-0.7-0.7s-0.7,0.3-0.7,0.7S-2,207.4-1.6,207.4"/>
	<path id="path373" d="M22.4,212.7C22.3,212.7,22.3,212.7,22.4,212.7h-0.2v-0.1h0.1C22.3,212.6,22.4,212.6,22.4,212.7z"/>
	<path id="path375" d="M22.5,212.6C22.4,212.6,22.4,212.6,22.5,212.6C22.4,212.6,22.4,212.6,22.5,212.6
		C22.4,212.7,22.4,212.7,22.5,212.6C22.4,212.7,22.4,212.7,22.5,212.6C22.4,212.7,22.4,212.7,22.5,212.6
		C22.5,212.7,22.4,212.7,22.5,212.6C22.4,212.7,22.4,212.6,22.5,212.6C22.4,212.6,22.4,212.6,22.5,212.6
		C22.4,212.6,22.5,212.6,22.5,212.6z"/>
	<path id="path377" d="M22.7,212.6v0.1V212.6v0.1V212.6L22.7,212.6l0.1,0.1L22.7,212.6L22.7,212.6C22.6,212.6,22.6,212.6,22.7,212.6
		C22.6,212.6,22.6,212.6,22.7,212.6z"/>
	<path id="path379" d="M22.7,212.7C22.7,212.7,22.8,212.7,22.7,212.7C22.8,212.7,22.8,212.7,22.7,212.7
		C22.8,212.7,22.8,212.7,22.7,212.7v-0.1C22.7,212.6,22.8,212.6,22.7,212.7L22.7,212.7z"/>
	<path id="path381" d="M22.9,212.6C22.8,212.7,22.8,212.7,22.9,212.6C22.8,212.7,22.8,212.7,22.9,212.6
		C22.9,212.7,22.8,212.7,22.9,212.6z"/>
	<path id="path383" d="M66.7,160.7H39.9v20.5c0,2.1,0.9,3.9,2.1,4.5l10.3,6.6c0.2,0.3,0.6,0.4,0.9,0.4s0.6-0.1,0.8-0.3l10.5-6.6
		c1.2-0.6,2.1-2.4,2.1-4.5L66.7,160.7z M66,181.5c-0.1,1.6-0.7,2.8-1.7,3.6l-10.1,6.4h-0.1c-0.2,0.2-0.5,0.3-0.8,0.3
		s-0.6-0.1-0.8-0.3l-10.1-6.4c-1.1-0.7-1.6-2-1.7-3.6v-20.1H66C66,161.4,66,181.5,66,181.5z"/>
	<path id="path385" d="M56.9,190.6l0.3-0.2C57.1,190.5,57,190.5,56.9,190.6"/>
	<path id="path387" d="M36.7,218.6l-2.5,0.3v-0.2c0.5-0.1,0.6-0.1,0.6-0.3c0-0.2-0.3-0.6-0.5-0.8l-1.8,0.2c-0.2,0.5-0.3,0.8-0.2,0.9
		c0,0.2,0.4,0.2,0.7,0.2v0.2l-1.6,0.2v-0.2c0.4-0.1,0.5-0.3,0.7-0.9l1.3-3.8h0.2l2.1,3.2c0.4,0.7,0.6,0.9,1,0.8V218.6L36.7,218.6z
		 M34.1,217.3l-1-1.5l-0.6,1.7L34.1,217.3z"/>
	<path id="path389" d="M81.1,209c-0.5-1.2-1.4-2-2.6-2.4c-1.2-0.3-2.5-0.1-3.4,0.9c-1.4,1.1-0.4,3-0.4,4.5c0,0.3,0,0.5-0.3,0.7
		c-5.5-0.6-10.7-2-16.2-2.5c-1.3-0.2-2.6-0.2-3.8-0.4l-1.6-0.2c-4.8,0.2-9.6,0.4-14.1,1.6c-1,0.3-2,0.4-3,0.7
		c-0.7-0.1-1.3,0.4-1.9,0.2l-1.3,0.3h-0.4c-0.6-1.6,1.2-2.6,0.7-4.1c-0.5-0.9-1.5-1.7-2.7-1.6c-1.3-0.2-2.5,0.6-3.1,1.6
		c-0.9,1.9,0.2,4,0.6,5.9c-0.1,0.6,0.6,1.3,0,1.8c-1.2-0.9-2.9-1.4-4.4-0.9c-0.5,0.2-1.3-0.1-1.5,0.5c1.7,0.9,3.8,0.8,5.6,0.7
		c0.2-0.1,0.4-0.1,0.6,0c0.2,1-0.2,2.4,0.4,3.3c0.7,0.9,1.8,1.2,3,1.3c3.5-0.1,6.7-1.2,9.9-2c0.5,0,0.9-0.3,1.4-0.3
		c1.7-0.4,3.6-0.7,5.5-0.7c-0.8,1-1.3,2.2-1.6,3.5c-0.5,1,0.8,1.2,1.2,1.8c-1.2,0.3-2,1.2-3.2,1.6c-2.5-0.1-4.5,0.9-6.9,1.1
		c0,0.5,0.8,0.3,0.9,0.9c-0.1,0.3-0.5,0.4-0.7,0.6c0,0.2,0,0.3,0.2,0.3c0.2-0.3,0.7-0.1,1-0.3c0.8,0,1.4-0.2,2.2-0.3
		c0.7-0.3,1.4-0.3,2-0.8c0.8-0.2,1.3-0.8,2.1-1c1.2,0,2.2-0.4,3.3-0.5v0.2c-0.9,1.4-1.8,2.9-2.7,4.3c-0.2,0.3,0,0.5,0.3,0.6
		c0.5,0.2,1.1,0,1.5-0.2c0.8-1.4,1.5-2.7,2.2-4.2c0.3-1.3,1.2-2,2.2-2.9c0.2-0.1,0.4-0.3,0.5-0.1c-0.9,0.8-1.4,1.7-1.9,2.6
		c-0.3,1.1-0.4,2.5,0.6,3.4c0.5,0.4,1.2,0.3,1.8,0.3c1.5-0.8,3.4,0.5,4.6-1c0.7-0.1,0.8,0.7,1.2,1.1c0.7,0.2,1.3,0.9,2,0.4
		c0-0.4-0.5-0.8-0.7-1.2c-0.5-0.8-1-1.5-1.5-2.2c-0.2-0.5-0.5-0.9-0.6-1.4c0.7,0.2,1.3,0.7,2.1,0.8c0.7,0.3,1.5,0.2,2.1,0.6
		c0.5,0.7,1.3,1,1.9,1.5c1,0.5,2,0.5,3,0.9c0.4,0,1,0.3,1.2,0c-0.2-0.2-0.3-0.3-0.6-0.4c-0.1-0.5,0.7-0.2,1-0.6
		c-0.1-0.2-0.3-0.3-0.4-0.3c-0.6-0.3-1.9-0.4-2.3-0.6c-0.5-0.1-0.9-0.3-1.3-0.4c-2.3,0-3.6-2.1-5.4-2.9c0.4-0.4,1.1-0.7,1.3-1.3
		c0.3-0.5,0.5-1.4,0.1-2.1c-0.3-1.2-1.9-1-2.8-1.7l0.1-0.1c1.5-0.1,2.8,0.3,4.2,0.5c3.7,0.5,7.1,1.9,11,2c2.1,0,4.8,0.1,5.8-1.9
		l0.6-3.6C80,212.9,81.3,211.1,81.1,209 M39.5,226.7l-0.5-0.5c0.3-0.3,0.8-0.2,1.3-0.4c1-0.3,2.2-0.7,3.3-0.5
		C42.4,226.3,40.9,226.4,39.5,226.7 M63.6,226.1c0.9,0.4,2.8,0.8,4.1,1c-0.1,0.5-1.1,0-1,0.8c-1.2-0.5-2.6-0.7-3.5-1.6
		C63.3,226.1,63.4,226,63.6,226.1 M27.4,209.6c0.1-0.7,0.3-1.4,0.9-1.9c0.9-0.5,2.2-0.4,3,0.1c0.3,0.2,0.5,0.4,0.6,0.7
		c0.2,0.7-0.1,1.4-0.6,1.7h-0.4c0-0.6,0-1.2,0.2-1.7c0-0.5-0.4-0.5-0.7-0.7c-0.7-0.2-1.2,0.1-1.7,0.4c-0.4,0.5-0.7,1-0.5,1.7
		c0.3,0.4,0,1,0.2,1.5l-0.1,0.2C27.9,211,27.3,210.5,27.4,209.6 M29.2,210.7c0.6,0.4,1.4,0.2,2.1,0.3c0.1,0.4,0.1,1-0.2,1.3
		c-0.7-0.2-1.5-0.1-1.8-0.7C29.4,211.4,29.2,211,29.2,210.7 M29.1,209.4c0.1-0.3,0-0.8,0.4-0.9c0.3-0.1,0.7-0.1,0.7,0.2
		c0,0.5-0.1,0.9-0.2,1.4C29.6,210.2,29.3,209.9,29.1,209.4 M47.2,221.8c-0.2-1.4,0.3-2.5,1.2-3.5c0.5-0.1,1.2-0.2,1.7,0.1
		c-1,0.3-2.3,0.5-2.5,1.8c0,0.5-0.1,0.8,0.1,1.2c0.4,0.7,1.4,0.4,1.9,1c0,0.2-0.2,0.4-0.3,0.5C48.6,222.5,47.8,222.3,47.2,221.8
		 M45.8,224.5c0.9-0.4,1.9-1.2,2.9-0.8C48,224.2,46.8,224.5,45.8,224.5 M49.5,224.9c-0.5,1.2-1.2,2.4-1.9,3.6
		c-0.1,0.2-0.4,0.2-0.6,0.3c0-0.5,0.5-1,0.8-1.4c0.8-1,1-2.2,2-3.2C49.9,224.4,49.5,224.6,49.5,224.9 M50.4,222.7v0.2h-0.1
		L50.4,222.7C50.5,222.6,50.4,222.6,50.4,222.7z M50.1,221.6c-0.7-0.1-1.3-0.3-1.8-0.5c-0.4-0.4,0-0.8,0-1.2
		c0.5-0.9,2.1-1.3,2.8-0.5C50.9,220.2,50.6,221,50.1,221.6 M50.9,221.6c0.1-0.5,0.3-1.2,0.6-1.6C51.5,220.5,51.3,221.2,50.9,221.6
		 M51.3,218.5c-0.5-0.1-0.8-0.7-1.3-0.7c0.5-0.2,0.9-0.1,1.5,0C51.7,218,51.4,218.2,51.3,218.5 M51.8,219.6v-0.4V219.6z M51.9,221.4
		c0-0.2,0.1-0.3,0.1-0.5c0.2-0.2,0.4,0.2,0.5,0.3C52.3,221.3,52.1,221.5,51.9,221.4 M52.4,219c0.2-0.5,0.2-1,0.6-1.4
		c0.4,0,0.7,0,1,0.2c0.1,0.8,1,1.8,0,2.5c-0.3,0.2-0.8,0.5-1.2,0.2C52.3,219.9,52.2,219.6,52.4,219 M55.2,217.9
		c-0.1-0.3,0.3-0.1,0.5-0.2l1.2,0.1C56.3,217.7,55.5,219.1,55.2,217.9 M57.2,218.4c-0.5,0.2-0.8,0.7-1.3,0.8
		C56.1,218.8,56.7,218.4,57.2,218.4 M55.5,220.9v-0.1V220.9z M55.6,223.2c0,0.1,0,0.2-0.1,0.3l-0.8-0.7
		C55.1,222.7,55.4,222.9,55.6,223.2 M54.6,222c0.1-0.1,0.3-0.1,0.3,0H54.6z M54,221.4c0.2-0.2,0.3-0.6,0.6-0.6c0,0,0,0.1,0.1,0.1
		C54.5,221.1,54.3,221.3,54,221.4 M53.2,221.3H53l0.2-0.2C53.4,221.2,53.2,221.3,53.2,221.3 M53.3,222.8c0.5-0.5,1,0.3,1.2,0.7
		c0.6,0.9,2.1,1.6,1.5,2.8c-0.7,0.7-1.9,0-2.7,0.5c-0.4,0-1.2,0.1-1.4-0.3C52.3,225.3,52.7,223.9,53.3,222.8 M52.2,223.5l0.2-0.3
		c-0.3,0.9-0.8,1.9-1.3,2.8C50.9,225.1,51.9,224.4,52.2,223.5 M53.9,228.2c-0.7,0-1.8,0.5-2.5-0.2c0-0.3-0.3-0.5-0.3-0.8
		c0.6-0.2,1.2,0.5,1.7,0c0.9,0,1.8-0.1,2.7,0.1c0.4,0.1,1.1-0.7,1.2,0.1C56.4,228.7,54.8,227.8,53.9,228.2 M56.1,222.5l0.1,0.1h-0.1
		V222.5z M56.4,225c0,0.4,0.4,0.5,0.2,0.9C56.5,225.8,56.2,225.4,56.4,225 M57.4,227.3l-0.2,0.1c-0.2-0.2-0.1-0.6-0.1-0.8
		C57.4,226.8,57.6,227.1,57.4,227.3 M59.4,228.3c0,0.1-0.2,0.1-0.3,0c-1.2-1.5-1.7-3-2.4-4.7h0.2C57.7,225.1,58.4,226.8,59.4,228.3
		 M60.8,224.7c-0.1,0-0.1,0.1-0.1,0.2c-1.1,0-1.8-0.6-2.7-1.2v-0.2C59,223.5,59.9,224.2,60.8,224.7 M59.8,219.6
		c0.5,0.1,0.5,0.6,0.5,1c0,0.9-0.5,1.6-1.3,1.9c-0.4,0.2-1.1,0.3-1.5,0.2c0.9,0,1.9-0.4,2.3-1.3C59.8,221.4,59.8,219.6,59.8,219.6z
		 M58.9,219.4c0.2,0.5,0.5,1,0.3,1.7c-0.4,0.7-1.2,0.7-1.8,0.9c-0.3,0-0.6-0.1-0.9-0.3c0-0.2,0-0.3-0.2-0.4c0.1-0.5-0.9-1-0.2-1.4
		C56.8,219.3,58.3,218,58.9,219.4 M78.5,216.6c-0.3,0.4,0,1-0.4,1.4c0,0.7-0.6,1-1.1,1.3c-4.6,1-9.1-0.5-13.5-1.3
		c-6.2-1.4-13.4-1.7-19.8-0.3c-3,0.5-5.9,1.2-8.7,2.1c-1.8,0.2-3.7,0.5-5.4,0c-1.4-0.7-0.8-2.4-1.2-3.7c0.1-1-0.3-1.7-0.3-2.7
		c-0.1-0.3-0.2-0.7-0.2-1c0.6,0.1,1.2,0.5,1.8,0.7c3.2,0.6,6.1-0.4,9.1-1c2.9-0.6,5.9-1.1,8.9-1.4c3.5,0,7-0.2,10.3,0.3
		c1.1,0,2,0.3,3,0.4c2.2,0.3,4.2,0.9,6.4,1c0.3,0.1,0.8,0.1,1.2,0.2c3.5,0.5,7.4,1.5,10.7,0C79.3,213.9,78.7,215.2,78.5,216.6
		 M77.4,211.8c0,0.6-0.5,0.5-0.8,0.7h-0.9c-0.2-0.3-0.1-0.8-0.1-1.1C76.1,211.6,76.8,211.6,77.4,211.8 M77,210.9
		c0.4-0.4-0.1-2.9,1.1-1.3c0,0.3,0,0.8-0.3,1C77.6,210.7,77.3,211.1,77,210.9 M80.1,210.5c-0.3,0.7-0.9,1.2-1.7,1.3
		c0-0.9,0.9-1.6,0.6-2.6c-0.5-0.7-1.5-1-2.4-0.8c-0.3,0.2-0.2,0.6-0.3,1l-0.2,1.3c-0.8,0-0.8-0.7-1-1.2c0-0.8,0.4-1.6,1.2-2
		c0.6-0.3,1.6-0.3,2.2,0.1c0.5,0.1,1.1,0.3,1.3,0.8C80.4,208.8,80.2,209.8,80.1,210.5"/>
</g>
<g id="g6286" transform="matrix(.80910 0 0 .80910 70.05 163.09)">
	<path id="path2997" d="M-163.9,115.6l-3.3-7.5l-3.4,7.5H-163.9L-163.9,115.6z M-163.3,116.7h-7.7l-0.9,2.1
		c-0.3,0.7-0.5,1.3-0.5,1.8c0,0.6,0.2,1.1,0.7,1.4c0.3,0.2,1,0.3,2.1,0.4v0.6h-7.3v-0.6c0.8-0.1,1.4-0.4,1.9-1
		c0.5-0.5,1.1-1.6,1.9-3.3l7.8-17.4h0.3l7.9,17.9c0.8,1.7,1.4,2.8,1.9,3.2c0.4,0.3,0.9,0.5,1.5,0.6v0.6h-10.6v-0.6h0.4
		c0.8,0,1.4-0.1,1.8-0.4c0.2-0.2,0.4-0.4,0.4-0.7c0-0.2,0-0.4-0.1-0.6c0-0.1-0.2-0.5-0.5-1.2L-163.3,116.7"/>
	<path id="path2999" d="M-140.2,107.9v11.8c0,1.1,0.1,1.9,0.3,2.2c0.2,0.3,0.6,0.5,1.3,0.5v0.6h-6.1v-2c-0.7,0.9-1.4,1.5-2.2,1.9
		c-0.7,0.4-1.5,0.6-2.4,0.6c-0.8,0-1.6-0.3-2.3-0.8c-0.7-0.5-1.1-1.1-1.3-1.8c-0.2-0.7-0.3-1.9-0.3-3.7v-6c0-1.1-0.1-1.8-0.3-2.1
		c-0.2-0.3-0.6-0.5-1.3-0.5v-0.6h6.1v10.3c0,1.1,0,1.8,0.1,2.1c0.1,0.3,0.3,0.5,0.5,0.7c0.2,0.2,0.5,0.2,0.8,0.2
		c0.4,0,0.7-0.1,1-0.3c0.4-0.3,0.9-0.8,1.5-1.7v-8.1c0-1.1-0.1-1.8-0.3-2.1c-0.2-0.3-0.6-0.5-1.3-0.5v-0.6L-140.2,107.9"/>
	<path id="path3001" d="M-128,107.5l0.2,5.1h-0.5c-0.7-1.5-1.3-2.6-2-3.1c-0.7-0.6-1.4-0.8-2.1-0.8c-0.4,0-0.8,0.2-1.1,0.5
		c-0.3,0.3-0.5,0.6-0.5,1c0,0.3,0.1,0.6,0.3,0.8c0.3,0.4,1.3,1.2,2.9,2.3c1.6,1.1,2.6,2,3.1,2.7c0.5,0.7,0.8,1.6,0.8,2.5
		c0,0.8-0.2,1.7-0.6,2.5c-0.4,0.8-1,1.4-1.8,1.9c-0.8,0.4-1.6,0.6-2.5,0.6c-0.7,0-1.7-0.2-2.9-0.7c-0.3-0.1-0.5-0.2-0.7-0.2
		c-0.4,0-0.6,0.3-0.9,0.8h-0.5l-0.3-5.4h0.5c0.5,1.4,1.1,2.5,2,3.2c0.8,0.7,1.6,1.1,2.4,1.1c0.5,0,0.9-0.2,1.3-0.5
		c0.3-0.3,0.5-0.7,0.5-1.2c0-0.5-0.2-1-0.5-1.3c-0.3-0.4-1-0.9-2.2-1.7c-1.6-1.1-2.7-2-3.2-2.6c-0.7-0.9-1.1-1.9-1.1-2.9
		c0-1.2,0.4-2.2,1.2-3.1c0.8-0.9,2-1.4,3.5-1.4c0.8,0,1.6,0.2,2.4,0.6c0.3,0.2,0.5,0.2,0.7,0.2c0.2,0,0.3,0,0.5-0.1
		c0.1-0.1,0.3-0.3,0.6-0.7L-128,107.5"/>
	<path id="path3003" d="M-120.1,102.4v5.5h3.6v1.6h-3.6v9.3c0,0.9,0,1.4,0.1,1.7c0.1,0.2,0.2,0.5,0.4,0.6c0.2,0.2,0.4,0.2,0.6,0.2
		c0.7,0,1.4-0.5,2-1.6l0.5,0.4c-0.9,2.1-2.3,3.1-4.2,3.1c-1,0-1.8-0.3-2.4-0.8c-0.7-0.5-1.1-1.1-1.3-1.8c-0.1-0.4-0.2-1.4-0.2-3
		v-8.1h-2v-0.6c1.4-1,2.5-2,3.4-3c1-1.1,1.8-2.2,2.5-3.5L-120.1,102.4"/>
	<path id="path3005" d="M-109.1,107.9v3.4c1-1.6,1.9-2.6,2.6-3.1c0.8-0.5,1.5-0.8,2.2-0.8c0.6,0,1.1,0.2,1.4,0.6
		c0.4,0.4,0.5,0.9,0.5,1.6c0,0.7-0.2,1.3-0.5,1.7c-0.3,0.4-0.8,0.6-1.3,0.6c-0.6,0-1.1-0.2-1.5-0.5c-0.4-0.4-0.7-0.6-0.7-0.6
		c-0.1-0.1-0.2-0.1-0.4-0.1c-0.3,0-0.6,0.1-0.9,0.4c-0.4,0.4-0.8,0.9-1,1.6c-0.3,1-0.5,2.2-0.5,3.4v3.5l0,0.9c0,0.6,0,1,0.1,1.2
		c0.1,0.3,0.3,0.5,0.6,0.6c0.3,0.1,0.7,0.2,1.3,0.2v0.6h-8.1v-0.6c0.7-0.1,1.1-0.2,1.3-0.5c0.2-0.3,0.4-1.1,0.4-2.4v-8.3
		c0-0.9,0-1.4-0.1-1.6c-0.1-0.3-0.3-0.5-0.5-0.7c-0.2-0.1-0.6-0.2-1.1-0.3v-0.6L-109.1,107.9"/>
	<path id="path3007" d="M-94.1,119.6v-5c-1.3,0.8-2.3,1.6-2.9,2.4c-0.4,0.6-0.6,1.2-0.6,1.8c0,0.5,0.2,0.9,0.5,1.3
		c0.3,0.3,0.6,0.4,1.1,0.4C-95.4,120.5-94.8,120.2-94.1,119.6L-94.1,119.6z M-94.1,120.7c-1.8,1.6-3.5,2.4-4.9,2.4
		c-0.9,0-1.6-0.3-2.1-0.8c-0.6-0.6-0.9-1.3-0.9-2.1c0-1.1,0.5-2.2,1.5-3.1c1-0.9,3.1-2.1,6.5-3.7v-1.5c0-1.1-0.1-1.9-0.2-2.1
		c-0.1-0.3-0.4-0.6-0.7-0.8c-0.3-0.2-0.7-0.3-1.2-0.3c-0.7,0-1.3,0.2-1.7,0.5c-0.3,0.2-0.4,0.4-0.4,0.7c0,0.2,0.1,0.5,0.5,0.8
		c0.4,0.5,0.6,0.9,0.6,1.3c0,0.5-0.2,1-0.6,1.4c-0.4,0.4-0.9,0.5-1.5,0.5c-0.7,0-1.2-0.2-1.7-0.6c-0.5-0.4-0.7-0.9-0.7-1.4
		c0-0.8,0.3-1.5,0.9-2.2c0.6-0.7,1.5-1.3,2.6-1.6c1.1-0.4,2.2-0.6,3.4-0.6c1.4,0,2.6,0.3,3.4,0.9c0.8,0.6,1.4,1.3,1.6,2
		c0.1,0.5,0.2,1.5,0.2,3.1v5.8c0,0.7,0,1.1,0.1,1.3c0.1,0.2,0.1,0.3,0.2,0.4c0.1,0.1,0.2,0.1,0.4,0.1c0.3,0,0.6-0.2,0.9-0.6l0.5,0.4
		c-0.5,0.8-1.1,1.4-1.7,1.7c-0.6,0.4-1.2,0.5-1.9,0.5c-0.9,0-1.5-0.2-2-0.6C-93.7,122.2-94,121.6-94.1,120.7"/>
	<path id="path3009" d="M-81,101.1v18.7c0,1.1,0.1,1.7,0.4,2c0.2,0.3,0.7,0.5,1.5,0.5v0.6h-8.1v-0.6c0.7,0,1.2-0.2,1.5-0.6
		c0.2-0.2,0.3-0.9,0.3-2v-15.6c0-1.1-0.1-1.7-0.4-2c-0.2-0.3-0.7-0.5-1.4-0.5v-0.6L-81,101.1"/>
	<path id="path3011" d="M-71.8,107.9v11.9c0,1.1,0.1,1.7,0.4,2c0.2,0.3,0.7,0.5,1.5,0.5v0.6h-8.1v-0.6c0.7,0,1.2-0.2,1.5-0.6
		c0.2-0.2,0.3-0.9,0.3-2V111c0-1.1-0.1-1.7-0.4-2c-0.2-0.3-0.7-0.5-1.4-0.5v-0.6L-71.8,107.9L-71.8,107.9z M-74.1,100.6
		c0.7,0,1.3,0.2,1.8,0.7c0.5,0.5,0.7,1.1,0.7,1.8c0,0.7-0.2,1.3-0.7,1.8c-0.5,0.5-1.1,0.7-1.8,0.7s-1.3-0.2-1.8-0.7
		c-0.5-0.5-0.7-1.1-0.7-1.8c0-0.7,0.2-1.3,0.7-1.8C-75.3,100.8-74.8,100.6-74.1,100.6"/>
	<path id="path3013" d="M-61.2,119.6v-5c-1.3,0.8-2.3,1.6-2.9,2.4c-0.4,0.6-0.6,1.2-0.6,1.8c0,0.5,0.2,0.9,0.5,1.3
		c0.3,0.3,0.6,0.4,1.1,0.4C-62.5,120.5-61.9,120.2-61.2,119.6L-61.2,119.6z M-61.2,120.7c-1.8,1.6-3.5,2.4-4.9,2.4
		c-0.9,0-1.6-0.3-2.1-0.8c-0.6-0.6-0.9-1.3-0.9-2.1c0-1.1,0.5-2.2,1.5-3.1c1-0.9,3.1-2.1,6.5-3.7v-1.5c0-1.1-0.1-1.9-0.2-2.1
		c-0.1-0.3-0.3-0.6-0.7-0.8c-0.3-0.2-0.7-0.3-1.2-0.3c-0.7,0-1.3,0.2-1.7,0.5c-0.3,0.2-0.4,0.4-0.4,0.7c0,0.2,0.1,0.5,0.5,0.8
		c0.4,0.5,0.6,0.9,0.6,1.3c0,0.5-0.2,1-0.6,1.4c-0.4,0.4-0.9,0.5-1.5,0.5c-0.7,0-1.2-0.2-1.7-0.6c-0.5-0.4-0.7-0.9-0.7-1.4
		c0-0.8,0.3-1.5,0.9-2.2c0.6-0.7,1.5-1.3,2.6-1.6c1.1-0.4,2.2-0.6,3.4-0.6c1.4,0,2.6,0.3,3.4,0.9c0.8,0.6,1.4,1.3,1.6,2
		c0.2,0.5,0.2,1.5,0.2,3.1v5.8c0,0.7,0,1.1,0.1,1.3c0.1,0.2,0.1,0.3,0.2,0.4c0.1,0.1,0.2,0.1,0.4,0.1c0.3,0,0.6-0.2,0.9-0.6l0.5,0.4
		c-0.5,0.8-1.1,1.4-1.7,1.7c-0.6,0.4-1.2,0.5-2,0.5c-0.9,0-1.5-0.2-2-0.6C-60.8,122.2-61.1,121.6-61.2,120.7"/>
	<path id="path3015" d="M-48.2,107.9v1.9c0.8-0.8,1.5-1.4,2.2-1.8c0.7-0.4,1.5-0.6,2.3-0.6c1,0,1.8,0.3,2.4,0.8
		c0.6,0.5,1.1,1.2,1.3,2c0.2,0.6,0.3,1.8,0.3,3.5v5.9c0,1.2,0.1,1.9,0.3,2.2c0.2,0.3,0.7,0.5,1.3,0.5v0.6h-7.6v-0.6
		c0.6-0.1,1-0.3,1.2-0.7c0.2-0.3,0.3-0.9,0.3-2V113c0-1.2,0-2-0.1-2.3c-0.1-0.3-0.3-0.6-0.5-0.7c-0.2-0.2-0.5-0.3-0.8-0.3
		c-0.9,0-1.8,0.7-2.6,2v8.1c0,1.1,0.1,1.8,0.3,2.1c0.2,0.3,0.6,0.5,1.2,0.6v0.6h-7.6v-0.6c0.6-0.1,1.1-0.3,1.4-0.6
		c0.2-0.2,0.3-0.9,0.3-2.1v-8.5c0-1.1-0.1-1.8-0.3-2.1c-0.2-0.3-0.6-0.5-1.3-0.5v-0.6L-48.2,107.9"/>
	<path id="path3017" d="M-8.4,100.6v7.7H-9c-0.7-2.1-1.8-3.7-3.2-4.8c-1.4-1.1-3-1.6-4.7-1.6c-1.6,0-3,0.5-4.1,1.4
		c-1.1,0.9-1.9,2.2-2.3,3.8c-0.5,1.6-0.7,3.3-0.7,5.1c0,2.1,0.2,3.9,0.7,5.5c0.5,1.6,1.3,2.7,2.4,3.5c1.1,0.7,2.4,1.1,3.9,1.1
		c0.5,0,1.1-0.1,1.6-0.2c0.6-0.1,1.1-0.3,1.7-0.5v-4.5c0-0.9-0.1-1.4-0.2-1.7c-0.1-0.3-0.4-0.5-0.7-0.7c-0.4-0.2-0.8-0.3-1.3-0.3
		h-0.6v-0.6h10.6v0.6c-0.8,0.1-1.4,0.2-1.7,0.3c-0.3,0.2-0.6,0.4-0.7,0.8c-0.1,0.2-0.1,0.7-0.1,1.5v4.5c-1.4,0.6-2.9,1.1-4.4,1.4
		c-1.5,0.3-3.1,0.5-4.7,0.5c-2.1,0-3.8-0.3-5.2-0.8c-1.4-0.6-2.6-1.3-3.6-2.2c-1-0.9-1.9-2-2.5-3.1c-0.8-1.5-1.1-3.1-1.1-5
		c0-3.3,1.2-6.1,3.5-8.3c2.3-2.3,5.2-3.4,8.7-3.4c1.1,0,2.1,0.1,2.9,0.3c0.5,0.1,1.2,0.3,2.3,0.7c1.1,0.4,1.7,0.6,1.9,0.6
		c0.3,0,0.6-0.1,0.8-0.3c0.3-0.2,0.5-0.6,0.7-1.3L-8.4,100.6"/>
	<path id="path3019" d="M2.1,108.6c-0.5,0-1,0.2-1.4,0.6c-0.4,0.4-0.6,1.2-0.8,2.4c-0.1,1.2-0.2,2.9-0.2,5.1c0,1.1,0.1,2.2,0.2,3.2
		c0.1,0.8,0.4,1.3,0.8,1.7c0.4,0.4,0.8,0.6,1.3,0.6c0.5,0,0.9-0.1,1.2-0.4c0.4-0.4,0.7-0.9,0.8-1.5c0.2-1,0.3-3.1,0.3-6.2
		c0-1.8-0.1-3.1-0.3-3.8c-0.2-0.7-0.5-1.2-0.9-1.5C2.9,108.7,2.6,108.6,2.1,108.6L2.1,108.6z M2.1,107.4c1.3,0,2.5,0.3,3.7,1
		c1.1,0.7,2,1.6,2.6,2.9c0.6,1.2,0.9,2.6,0.9,4.1c0,2.1-0.5,3.9-1.6,5.4c-1.3,1.7-3.1,2.6-5.4,2.6c-2.3,0-4-0.8-5.2-2.4
		c-1.2-1.6-1.8-3.4-1.8-5.5c0-2.2,0.6-4,1.9-5.6C-1.8,108.3-0.1,107.4,2.1,107.4"/>
	<path id="path3021" d="M16.3,123.4l-5.1-11.7c-0.6-1.4-1.1-2.3-1.4-2.7c-0.2-0.3-0.6-0.5-1.1-0.6v-0.6h8v0.6c-0.5,0-0.8,0.1-1,0.3
		c-0.3,0.2-0.4,0.5-0.4,0.8c0,0.4,0.2,1.1,0.7,2.2l2.5,5.7l2-4.9c0.6-1.4,0.9-2.4,0.9-3c0-0.3-0.1-0.6-0.4-0.8
		c-0.2-0.2-0.7-0.3-1.3-0.4v-0.6h4.9v0.6c-0.5,0.1-0.9,0.2-1.2,0.5c-0.3,0.3-0.8,1.1-1.4,2.6l-5,11.8L16.3,123.4"/>
	<path id="path3023" d="M32.5,113.8c0-1.7-0.1-2.9-0.3-3.6c-0.2-0.6-0.5-1.1-0.9-1.5c-0.2-0.2-0.5-0.3-0.9-0.3c-0.6,0-1,0.3-1.4,0.8
		c-0.6,1-1,2.3-1,3.9v0.6L32.5,113.8L32.5,113.8z M36.4,114.9h-8.3c0.1,2,0.6,3.6,1.6,4.7c0.7,0.9,1.6,1.3,2.7,1.3
		c0.6,0,1.2-0.2,1.8-0.5c0.5-0.4,1.1-1,1.7-2l0.5,0.4c-0.8,1.7-1.7,2.8-2.7,3.5c-1,0.7-2.1,1-3.4,1c-2.2,0-3.9-0.9-5.1-2.6
		c-0.9-1.4-1.4-3.1-1.4-5.2c0-2.5,0.7-4.5,2-6c1.4-1.5,3-2.2,4.8-2.2c1.5,0,2.8,0.6,4,1.9C35.7,110.6,36.3,112.4,36.4,114.9"/>
	<path id="path3025" d="M43.6,107.9v3.4c1-1.6,1.9-2.6,2.6-3.1c0.8-0.5,1.5-0.8,2.2-0.8c0.6,0,1.1,0.2,1.4,0.6
		c0.4,0.4,0.5,0.9,0.5,1.6c0,0.7-0.2,1.3-0.5,1.7c-0.3,0.4-0.8,0.6-1.3,0.6c-0.6,0-1.1-0.2-1.5-0.5c-0.4-0.4-0.7-0.6-0.7-0.6
		c-0.1-0.1-0.2-0.1-0.4-0.1c-0.3,0-0.6,0.1-0.9,0.4c-0.4,0.4-0.8,0.9-1,1.6c-0.3,1-0.5,2.2-0.5,3.4v3.5l0,0.9c0,0.6,0,1,0.1,1.2
		c0.1,0.3,0.3,0.5,0.6,0.6c0.3,0.1,0.7,0.2,1.3,0.2v0.6h-8.1v-0.6c0.7-0.1,1.1-0.2,1.3-0.5c0.2-0.3,0.4-1.1,0.4-2.4v-8.3
		c0-0.9,0-1.4-0.1-1.6c-0.1-0.3-0.3-0.5-0.5-0.7c-0.2-0.1-0.6-0.2-1.1-0.3v-0.6L43.6,107.9"/>
	<path id="path3027" d="M57.5,107.9v1.9c0.8-0.8,1.5-1.4,2.2-1.8c0.7-0.4,1.5-0.6,2.3-0.6c1,0,1.8,0.3,2.4,0.8
		c0.6,0.5,1.1,1.2,1.3,2c0.2,0.6,0.3,1.8,0.3,3.5v5.9c0,1.2,0.1,1.9,0.3,2.2c0.2,0.3,0.7,0.5,1.3,0.5v0.6H60v-0.6
		c0.6-0.1,1-0.3,1.2-0.7c0.2-0.3,0.3-0.9,0.3-2V113c0-1.2,0-2-0.1-2.3c-0.1-0.3-0.3-0.6-0.5-0.7c-0.2-0.2-0.5-0.3-0.8-0.3
		c-0.9,0-1.8,0.7-2.6,2v8.1c0,1.1,0.1,1.8,0.3,2.1c0.2,0.3,0.6,0.5,1.2,0.6v0.6h-7.6v-0.6c0.6-0.1,1.1-0.3,1.4-0.6
		c0.2-0.2,0.3-0.9,0.3-2.1v-8.5c0-1.1-0.1-1.8-0.3-2.1c-0.2-0.3-0.6-0.5-1.3-0.5v-0.6L57.5,107.9"/>
	<path id="path3029" d="M74.9,107.9v2c0.8-0.9,1.6-1.5,2.3-1.9c0.7-0.4,1.5-0.5,2.3-0.5c1,0,1.8,0.2,2.4,0.7
		c0.7,0.5,1.2,1.1,1.5,2.1c0.9-1,1.7-1.7,2.5-2.1c0.8-0.4,1.6-0.6,2.5-0.6c1,0,1.9,0.2,2.5,0.7c0.6,0.5,1.1,1.1,1.3,1.8
		c0.2,0.7,0.4,1.9,0.4,3.5v6.2c0,1.2,0.1,1.9,0.3,2.2c0.2,0.3,0.7,0.5,1.3,0.5v0.6h-7.8v-0.6c0.6-0.1,1.1-0.3,1.4-0.7
		c0.2-0.3,0.3-1,0.3-2v-6.5c0-1.3-0.1-2.2-0.2-2.6c-0.1-0.4-0.3-0.6-0.5-0.8c-0.2-0.2-0.5-0.3-0.8-0.3c-0.5,0-0.9,0.2-1.4,0.5
		c-0.5,0.3-0.9,0.8-1.4,1.5v8.1c0,1.1,0.1,1.8,0.3,2c0.2,0.4,0.7,0.6,1.4,0.7v0.6h-7.8v-0.6c0.4,0,0.7-0.1,1-0.3
		c0.2-0.2,0.4-0.4,0.5-0.7c0.1-0.3,0.1-0.8,0.1-1.7v-6.5c0-1.4-0.1-2.2-0.2-2.6c-0.1-0.3-0.3-0.6-0.5-0.8c-0.2-0.2-0.5-0.3-0.8-0.3
		c-0.4,0-0.8,0.1-1.2,0.3c-0.5,0.3-1,0.9-1.6,1.7v8.1c0,1.1,0.1,1.8,0.3,2.1c0.2,0.3,0.7,0.5,1.3,0.6v0.6h-7.8v-0.6
		c0.6-0.1,1.1-0.3,1.4-0.6c0.2-0.2,0.3-0.9,0.3-2.1v-8.5c0-1.1-0.1-1.8-0.3-2.1c-0.2-0.3-0.6-0.5-1.3-0.5v-0.6L74.9,107.9"/>
	<path id="path3031" d="M103.6,113.8c0-1.7-0.1-2.9-0.3-3.6c-0.2-0.6-0.5-1.1-0.9-1.5c-0.2-0.2-0.5-0.3-0.9-0.3
		c-0.6,0-1,0.3-1.4,0.8c-0.6,1-1,2.3-1,3.9v0.6L103.6,113.8L103.6,113.8z M107.6,114.9h-8.3c0.1,2,0.6,3.6,1.6,4.7
		c0.7,0.9,1.6,1.3,2.7,1.3c0.6,0,1.2-0.2,1.8-0.5c0.5-0.4,1.1-1,1.7-2l0.5,0.4c-0.8,1.7-1.7,2.8-2.7,3.5c-1,0.7-2.1,1-3.4,1
		c-2.2,0-3.9-0.9-5.1-2.6c-0.9-1.4-1.4-3.1-1.4-5.2c0-2.5,0.7-4.5,2-6c1.4-1.5,3-2.2,4.8-2.2c1.5,0,2.8,0.6,4,1.9
		C106.9,110.6,107.5,112.4,107.6,114.9"/>
	<path id="path3033" d="M114.3,107.9v1.9c0.8-0.8,1.5-1.4,2.2-1.8c0.7-0.4,1.5-0.6,2.3-0.6c1,0,1.8,0.3,2.4,0.8
		c0.6,0.5,1.1,1.2,1.3,2c0.2,0.6,0.3,1.8,0.3,3.5v5.9c0,1.2,0.1,1.9,0.3,2.2c0.2,0.3,0.7,0.5,1.3,0.5v0.6h-7.6v-0.6
		c0.6-0.1,1-0.3,1.2-0.7c0.2-0.3,0.3-0.9,0.3-2V113c0-1.2,0-2-0.1-2.3c-0.1-0.3-0.3-0.6-0.5-0.7c-0.2-0.2-0.5-0.3-0.8-0.3
		c-0.9,0-1.8,0.7-2.6,2v8.1c0,1.1,0.1,1.8,0.3,2.1c0.2,0.3,0.6,0.5,1.2,0.6v0.6h-7.6v-0.6c0.6-0.1,1.1-0.3,1.4-0.6
		c0.2-0.2,0.3-0.9,0.3-2.1v-8.5c0-1.1-0.1-1.8-0.3-2.1c-0.2-0.3-0.6-0.5-1.3-0.5v-0.6L114.3,107.9"/>
	<path id="path3035" d="M130.9,102.4v5.5h3.6v1.6h-3.6v9.3c0,0.9,0,1.4,0.1,1.7c0.1,0.2,0.2,0.5,0.4,0.6c0.2,0.2,0.4,0.2,0.6,0.2
		c0.7,0,1.4-0.5,2-1.6l0.5,0.4c-0.9,2.1-2.3,3.1-4.2,3.1c-1,0-1.8-0.3-2.4-0.8c-0.7-0.5-1.1-1.1-1.3-1.8c-0.1-0.4-0.2-1.4-0.2-3
		v-8.1h-2v-0.6c1.4-1,2.5-2,3.4-3c1-1.1,1.8-2.2,2.5-3.5L130.9,102.4"/>
</g>
</svg>
